<?xml version="1.0" encoding="utf-8"?>
<!-- Generator: Adobe Illustrator 23.1.1, SVG Export Plug-In . SVG Version: 6.00 Build 0)  -->
<svg version="1.1" id="Layer_1" xmlns="http://www.w3.org/2000/svg" xmlns:xlink="http://www.w3.org/1999/xlink" x="0px" y="0px"
	 viewBox="0 0 360 360" style="enable-background:new 0 0 360 360;" xml:space="preserve">
<style type="text/css">
	.st0{fill:#FFFFFF;}
</style>
<g>
	<g>
		<path class="st0" d="M40.95,173.09c-0.93,0.35-0.93,1.51-1.86,1.75c-1.51-0.12-3.02-0.35-4.53-0.81c-0.12,0-0.12-0.35-0.46-0.46
			c-0.58,0-0.81,0.11-1.4-0.24c-0.23-0.11-0.7-0.23-1.28-0.46c-0.58-0.35-1.4-0.46-1.75-0.7c-0.11-0.12,0.12-0.23-0.23-0.23
			c-0.58-0.12-0.81-0.7-1.28-1.05c-0.35-0.12-0.7,0-0.93-0.23c-0.24-0.12-0.35-0.47-0.7-0.7c-0.23-0.23-0.46-0.35-0.81-0.46
			c-0.46-0.23-0.93-0.46-1.4-1.05c-0.46,0-0.58-0.35-0.7-0.58c-0.58-0.23-1.28-0.58-1.86-0.81c-0.46-0.35-0.81-0.93-1.16-1.28
			c-0.58-0.35-0.81-0.7-1.28-1.28c-0.23-0.23-1.28,0-1.16-1.16c-0.35-0.23-1.16-0.23-1.51-0.58c0.35-0.81-0.7-0.7-0.93-0.93
			c-0.12,0,0-0.47,0-0.58c-0.58-0.58-1.4-1.16-2.21-2.09c-0.35-0.35-0.58-0.7-0.81-0.93c-0.11-0.11,0.12-0.58,0-0.58
			c-0.35-0.23-0.46,0-0.58-0.23c0,0.12,0.24-0.35,0.24-0.46c-0.47-0.35-0.81-0.58-1.51-1.28c-0.58,1.28-0.35,2.79-0.58,4.07
			c-0.23,1.05-0.81,1.97-0.93,3.02c0,0.23,0.23,1.86,0,2.09c-0.35,0.35,0,0.23,0,0.35c-0.12,0.7-0.23,0.7-0.23,1.28
			c-0.23,0.58,0,0.58-0.35,0.81c-0.23,0.35,0.23,1.16,0.35,1.86c0,0.58-0.35,1.4-0.35,1.75c0.12,1.39,0.81,2.67,0.81,4.42
			c-0.46,0-0.12,0.81-0.81,0.81c-0.46,0-0.81,0.46-1.63,0.58c-0.23,0.11-0.46,0-0.81,0c-0.35,0.11-1.63,0.46-2.44,0.35
			c-0.7-0.11-0.81-0.35-1.16-0.93c-0.35-0.35-0.93-0.58-1.28-0.81c0.23-1.05-0.58-1.05-0.23-2.21c-0.93,0.23-0.35-0.93-0.7-1.16
			c-0.35-0.35-0.23-1.05-0.23-2.21c-0.23-2.09-0.46-5.93,0-8.49c0-0.35-0.11-0.58,0-0.93c0-0.11,0.23-0.23,0.23-0.58
			c0.23-1.75,0.23-3.14,0.7-4.77c0-0.47,0.11-0.7,0.23-1.75v-0.46c0.46-0.35,0.35-2.79,0.58-3.95c0,0.11,0.35-0.12,0.35-0.23
			c0.12-0.81,0.35-1.75,0.58-2.44c0.12-0.12-0.12-0.58,0-0.7c0.46-0.46,1.16-2.56,0.93-3.72c0.58-0.58,1.05-1.39,1.28-1.97
			c0.23-0.93,0.23-1.98,0.46-2.67c0.11-0.23,0.35,0,0.35-0.46c0-0.12,0.23-0.58,0.35-0.81c0.12-0.47,0.35-1.16,0.58-1.86
			c0-0.12-0.11-0.46,0-0.58c0.58-0.35,0-0.58,0.23-1.51c0-0.12,0.35,0,0.35-0.35c0.12-0.46,0.7-1.4,0.93-2.09
			c0.58-1.28,0.93-2.67,1.63-3.95l0.23-1.16c0.47-0.46,0.7-1.51,1.28-2.44c0-0.23,0.23,0,0.23-0.35c0-0.7,0.35-0.81,0.58-1.63
			c0,0-0.12-0.47,0-0.47c0.35-0.23,0.93-1.97,1.16-2.44c0.81-1.63,1.86-2.91,2.67-4.19c1.75-0.11,3.37-0.11,4.42,0.47
			c0.47,1.16,0.12,2.21,0,3.48c-0.11,0.24-0.23,1.05-0.35,1.4c-0.35,0.81-0.7,1.51-0.93,2.67c-0.11,1.05-0.23,1.98-0.58,3.02
			c0,0.23,0,0.58,0,0.7H18.4c0,0.12,0.11,0.46,0,0.58c-0.46,0.35-0.58,1.98-0.93,3.14c-0.35,1.4-0.7,2.44-1.28,4.18
			c0,0.12-0.23,0.24-0.23,0.58c0,0.23,0.46,0.35,0.23,0.58c0,0.12-0.23,0.12-0.23,0.35c0,0-0.23,0.7-0.23,0.93
			c-0.23,0.46-0.12,1.05-0.58,1.16c0,0.81,0,1.51,0,2.21c-0.46,0.23-0.58,0.7-0.7,1.28c-0.12,0.23-0.35,0.58-0.23,1.16
			c0.11,0.35,0.23,0,0.58,0c0.93,0,1.28-1.05,2.09-1.63c0.24-0.11,0.47-0.11,0.58-0.23c0.23-0.11,0.47-0.46,0.7-0.58
			c0,0,0.46,0.11,0.58,0c0.35-0.47,1.16-1.16,1.86-1.86c0.12-0.24-0.11-0.35,0.24-0.35c0.46,0,0.7-0.93,1.16-0.93
			c0.58,0,0.58-0.81,1.28-0.81c0.24,0,1.05-0.7,1.28-1.28c0.58,0,1.16-0.46,1.74-0.58c0.93-0.35,1.16-1.39,1.86-1.74
			c0.12-0.12,0.46,0,0.58,0c0.11-0.23-0.12-0.7,0.23-0.7c0.58-0.12,0.58-0.58,1.05-1.05c0,0,0.58,0.23,0.58,0
			c0.23-0.24,0.23-0.24,0.58-0.47c0.23-0.23,0.7-0.81,0.93-0.93c0.12-0.12,0.46,0.11,0.58,0c0,0,0-0.23,0-0.35c0,0,0.58,0.12,0.7,0
			v-0.23c0.24-0.12,0.7-0.12,1.16-0.35c0.12,0,0.12-0.58,0.23-0.58c0.23,0,0.46,0.11,0.58,0c0.35-0.24,0.11-0.58,0.46-0.93
			c0.23-0.35,0.7-0.81,1.16-1.28c0.23-0.23,0.7-0.35,1.28-0.58c0.23-0.23,0.46-0.46,0.81-0.81c0.23-0.23,0.81-0.35,1.16-0.58
			c0.23-0.23,0.35-0.81,0.7-1.05c1.28-0.93,2.56-1.86,3.72-2.91c0.7-0.93,1.51-1.86,2.21-2.79c0.11-0.12,0.46,0.11,0.46-0.35
			c0-0.12,0.23-0.46,0.23-0.58c0.35-0.35,0.58-0.46,0.93-0.93c0.11-0.12,0.23-0.35,0.23-0.47c0.11-0.23,0.23-0.93,0.35-1.05
			c0,0,0.23,0.12,0.23,0c0.12,0,0-0.46,0-0.58c0.12,0,0.93-0.47,1.05-0.81c-0.35-0.81-1.39-1.05-2.21-1.28
			c-0.58-0.23-1.63-0.35-2.09-0.7c-0.12,0,0-0.23-0.35-0.23c-1.28-0.23-2.79-0.12-4.53-0.23c-2.09-0.35-5.81-0.35-8.49,0
			c-1.74,0.11-3.84,0.46-5.46,0.81c-0.35,0.11-1.05,0-1.75,0c-1.16,0.23-2.09,0.58-3.14,0.93c-0.81,0.23-1.98,0.46-2.79,0.93
			c-1.05-0.23-2.21-0.23-3.37,0.23c0,0,0,0.35-0.23,0.35c-0.12,0.11-0.35,0-0.46,0c-0.93,0.35-1.4,1.05-2.33,1.28
			c-0.35,0-0.93,0.81,0,0.58c-0.23,0.7-1.05-0.23-1.62,0.24c-0.58,0.58-1.05,0.81-1.98,0.93c0.12-1.4,2.09-1.28,2.56-2.44
			c-1.39-0.23-1.51,0.7-2.56,0.7c0.7-0.23-0.12-0.81,0-0.93c0.7-0.58,1.75-1.4,2.79-2.21c0-0.11,0.58,0.12,0.58,0
			c0.23-0.35,0.58-0.7,1.28-0.93c0.11,0,0.35,0.23,0.58,0c0.12-0.12-0.11-0.46,0.35-0.46c0.12-0.12,0.46,0,0.58,0
			c0.11-0.12,0.23-0.58,0.23-0.58c0.23-0.23,0.58,0,0.7,0c0.23-0.35,0.58-0.81,0.81-1.05c0.23,0,0.47,0,0.7-0.23
			c0.23-0.35,0.58-0.47,0.93-0.7c0.23-0.11,2.09-1.05,2.67-1.16c0,0,0.12-0.46,0.23-0.23c0.35,0.23,0.81,0,1.63-0.35
			c0.12-0.12,0.23-0.12,0.7-0.35c0.24-0.23,0.47-0.23,1.16-0.35c0.12,0,0.46,0.11,0.46,0c0.12,0,0-0.24,0-0.24
			c0.93-0.11,1.4-0.11,2.44-0.23c0.12,0,0.58,0,0.58,0c0.7-0.81,3.26-0.7,4.88-0.93c0,0,0.11-0.23,0.23-0.35
			c2.44-0.11,5.58-0.46,8.6-0.23c0,0,0.12,0.23,0.23,0.23c0.24,0.12,0.58-0.46,1.05-0.23c0.11,0,1.28,0.12,1.39,0.23
			c0.58,0.58,0.7-0.11,1.51,0c0.11,0,0.11,0.35,0.46,0.35c0.11,0,0.35,0.23,0.58,0.23c0.35,0,1.05-0.12,1.39,0
			c0.12,0,0.12,0.23,0.47,0.23c0.11,0,0.11,0,0.23,0c0.35,0.23,0.46,0.35,1.05,0.46c0.11,0,0.7,0.23,1.4,0.47
			c0.23,0.11,0,0.23,0.35,0.35c0.12,0,2.21,1.05,2.33,1.28c0.7,0.58,1.51,2.21,2.09,3.37c0.23,0.11,0.93,1.28,0.93,2.09
			c0.12,0.58,0.58,0.93,0.7,1.51c0.35,1.16-0.12,2.67-0.35,4.53c-0.12,0.7,0,0.93-0.35,1.4c-0.11,0.35-0.35,0.81-0.58,1.28
			c-0.58,1.16-0.81,2.21-1.39,3.37c-0.81,1.16-1.28,1.75-2.21,2.79c-0.35,0.46-0.81,0.81-1.16,1.16c-0.46,0.58-0.46,1.05-1.05,1.51
			c-0.7,1.05-2.44,2.21-3.6,3.37c-0.35,0.35-0.7,0.93-1.28,1.16c-0.35,0.35-0.7,0.58-1.16,0.93c-0.35,0.35-0.7,0.81-1.05,1.28
			c-0.58,0.35-0.93,0.81-1.28,1.05c-0.35,0.35-0.7,0.35-0.93,0.47c-0.23,0.11-0.35,0.35-0.7,0.58c-0.35,0.23-0.81,0.7-1.28,0.93
			c-0.35,0.23-0.58,0.93-1.16,1.16c-0.35,0.35-1.05,0.58-1.51,1.05c-0.35,0.23-0.7,0.7-1.16,1.16c-0.35,0.24-0.58,0.12-0.81,0.24
			c-0.35,0.11-0.58,0.46-0.7,0.58c-0.46,0.47-1.05,0.58-1.51,0.93c-0.24,0.11-0.35,0.46-0.7,0.58c-0.46,0.35-0.93,0.58-1.51,0.93
			c-0.35,0.35-0.81,0.58-1.4,0.93c-0.23,0.11,0,0.23-0.35,0.35c-0.81,0-0.93,0.81-1.51,1.16c-0.35,0.23-0.7,0.11-0.93,0.23
			c-0.47,0.23-0.81,0.7-1.51,0.93c-0.58,0.35-0.46,0.46-1.16,0.58c-0.7,0.24-0.7,0.81-1.28,1.05c-0.81,0.12-1.74,0.93-2.67,1.4
			c-1.05,0.58-2.09,1.16-3.14,1.63c0.23,0.7,1.28,0.81,0.7,1.51c0.35-0.46,0.93-0.23,0.93,0.58c1.51,0.93,2.67,2.21,3.95,3.37
			c0.58,0.58,1.28,1.16,1.75,1.75c0.46,0.58,1.51,0.93,1.51,1.86c1.74,0,2.56,1.63,3.72,2.56c0.12,0,0.23,0.12,0.58,0.23
			c0.35,0.24,1.4,1.05,2.09,1.51c0.46,0.23,0.7,0.46,1.16,0.93c0.35,0.23,0.7,0.35,0.93,0.58c0.12,0,1.4,0.81,1.86,0.81
			c0.12,0,0.46,0.23,0.58,0.35c1.4,0.7,2.67,1.28,4.3,1.51c0.23,0.23,0.11,0.93,0.7,0.93C42.12,171.81,41.53,172.5,40.95,173.09z
			 M10.5,114.74c-0.81-0.35,0.81-0.7,1.05-1.05C12.59,114.15,10.5,114.27,10.5,114.74z M13.17,110.55c1.16-0.23,1.4-1.05,2.79-0.93
			c1.4-1.63,4.42-1.51,5.81-3.02c-1.4,0.7-4.77,0.93-5.58,1.74l-0.7,0.35c-0.81,0.23-0.7,0.35-1.05,0.58
			c-0.12,0.24-0.58,0.24-0.93,0.35c-0.11,0.23-0.35,0.46-0.58,0.7c-0.23,0.11-0.81,0-0.81,0.23c-0.58-0.12-0.46,1.39,0.24,0.93
			c0,0.46,0.35,0,0-0.35C12.82,111.14,12.94,110.55,13.17,110.55z M18.17,158.44c-0.35-0.81-1.16-1.74-1.98-2.32
			c-0.58-0.7-1.4-1.74-2.67-1.86c0.58,1.4,1.75,2.21,3.14,2.67C16.77,157.86,17.7,157.98,18.17,158.44z M15.5,157.63
			c-0.58-0.46-1.16-1.28-0.7-0.7c0.47,0.81,1.05,1.4,1.86,1.86C16.89,158.21,15.84,157.98,15.5,157.63z"/>
		<path class="st0" d="M92.35,103.58c-0.12,0.58-0.23,1.4-0.35,1.86c0,0.11-0.35,0-0.35,0.35c0,0.46-0.7,0.58-0.7,1.16
			c0,0.12,0,0.23,0,0.35c0,0.12-0.23,0.12-0.23,0.23c-0.7,1.98-0.93,3.95-1.51,6.16c0,0.11-0.35,0-0.35,0.35
			c0,0.93-0.23,1.05-0.81,1.74c0.11,1.51-0.58,2.79-0.93,4.07c-0.23,0.7-0.35,1.51-0.7,2.79c0,0-0.35,0-0.35,0.23
			c0,0.12,0,0.23,0,0.35c-0.11,0.23,0,0.7-0.23,1.51c0,0.12-0.35,0-0.35,0.23c0,0.12-0.24,0.47-0.24,0.58
			c-0.23,0.58-0.58,1.16-0.58,1.98c0,0.11,0,0.46,0,0.58c-0.12,0.11-0.7,0.46-0.7,0.58c0,0.24,0.23,1.28,0,1.51
			c-0.35,0.23-0.58,1.97-0.81,3.02c0,0.12-0.35,0-0.35,0.35c0,0.7-0.12,0.81-0.24,1.51c0,0.12,0,0.58,0,0.7
			c-0.46,0.23,0,0.93-0.46,1.16h-0.23c-0.46,1.4-0.7,2.56-0.93,4.3c-0.12,0.93-0.7,1.75-0.93,2.67c0,0.23,0.12,1.16,0,1.28
			c-0.46,0.47-0.35,1.86-0.58,3.02c0,0-0.23,0-0.23,0.23c0,0.35,0,1.05,0,1.4c0,0-0.35,0-0.35,0.23c0,0.11,0,0.23,0,0.35
			c-0.11,0.46-0.35,1.74-0.58,2.91c-0.12,0.58-0.7,0.58-0.7,1.05c-0.23,0.81-0.23,1.97-0.35,3.02c-0.12,0.7-0.12,0.81-0.24,1.28
			c-0.35,0.93-0.35,1.97-0.35,3.6c0,0.46-0.35,0.58-0.35,0.93c0,0.35,0.35,0.46,0.35,0.93c0,0-0.35,0.12-0.35,0.35
			c0,0.81,0,0.7-0.58,1.16c0,0.7,0,1.28,0,2.21c0,0-0.23,0.12-0.23,0.23c0,0.46,0.35,0.58,0.23,0.93c0,0.46-0.58,0.93-0.58,1.51
			c0,0.46,0.24,0.93,0.35,1.63c0.12,1.28-0.35,3.14,0.23,3.83c0.23,0.35,0.35,0.93,0.58,1.63c0.12,0.12,0.58,0.12,0.7,0.23
			c0,0.12,0.24,0.93,0.24,0.93c-0.12,0.11-0.24,0.23-0.24,0.58c-0.35,0-0.35,0.35-0.35,0.58c-0.35,0-0.58,0-0.93,0
			c-0.11-0.46-0.46,0-0.58,0.35c0.12,0.81,0.47-0.46,1.16,0c-0.58,0.46-0.7,1.28-1.74,1.28c-0.23,0.93,0.35,1.05,0.35,1.75
			c-1.05,0.23-0.58-1.28-0.93-1.75c0-0.81-1.28-0.46-1.28-1.28c-0.47-0.46-0.35-0.81-0.58-1.28c-0.23-0.23-0.81-0.23-0.93-0.58
			c-0.23-0.23-0.11-0.81-0.35-1.16c-0.12-0.24-0.81-0.35-0.81-0.58c-0.12-0.12,0.23-0.35,0.23-0.7c0-0.23-0.23-0.58-0.23-0.93
			c-0.12-0.23-0.23-0.7-0.35-1.16c-0.12-0.35-0.23-0.46-0.23-0.93c-0.12-0.12-0.35-0.23-0.35-0.23c-0.11-0.47,0.35-0.58,0.35-0.93
			c0-0.23-0.35-0.7-0.35-1.05c-0.11-0.58-0.46-1.28-0.46-1.74c0-1.05,0.81-2.21-0.23-3.14c1.05-1.28,0.7-2.91,1.05-4.88
			c0,0,0.23-0.12,0.23-0.23c0.12-0.35-0.12-0.81,0-1.16c0-0.23,0.35-0.35,0.35-0.35c0-0.11-0.35-0.46-0.35-0.93
			c0,0.11,0.35-0.12,0.35-0.23c0-0.35,0-0.58,0-0.7c0-0.35,0.23-0.23,0.23-0.35c0-0.35-0.58-0.7,0-1.16c-1.05,0.12-1.86-0.11-2.79,0
			c-0.81,0.12-1.63,0.81-2.91,0.58c-0.81-0.12-0.46,0-1.63,0c-1.74,0.11-3.95,0.46-6.04,0.58c-0.93,0.11-0.7,1.63-0.93,2.21
			c-0.81,0-0.12-1.05-0.35-1.63c-0.46-0.58-0.81,0.58-0.93,0.7c-0.81,0.81-1.97,2.32-3.6,2.09c-0.7,0-0.7-0.35-1.05-0.58
			c-0.58-0.35-1.4-0.81-2.09-1.51c-2.09-0.23-2.79,0.81-4.53,0.58c-0.58,0.11-0.81,0.7-1.16,0.93c-0.93,0-1.51,0-2.21,0
			c-0.7-1.16,0-2.21,0-3.72c0.81-0.58,1.97-0.93,3.02-1.4c0.23-0.11,0.46-0.58,0.58-0.7c0.12,0,0.58,0.12,0.7,0
			c0.24-0.35,0.58,0,1.16-0.23c0.12,0,0.12-0.7,0.23-0.7c0.81-0.24,1.63-0.24,2.21-0.35c0.7-0.12,1.16-0.23,1.86-0.58
			c1.16-0.93,1.63-2.21,2.44-3.37c0.35-0.46,0.7-1.4,1.16-2.09c0.23-0.12,0.46-0.47,0.7-0.58c0.11-0.23,0.11-0.7,0.23-0.93
			c0.35-0.35,1.05-0.58,1.28-0.93c0.58-0.93,0.81-2.09,1.86-2.44c0-0.81,0.46-1.28,0.58-2.21c1.28-1.05,1.63-3.02,3.37-3.83
			c0.35-1.75,1.86-2.79,2.67-4.3c0.12-0.23,0.12-0.81,0.46-1.05c0.12-0.23,0.7-0.35,0.81-0.58c0.23-0.23,0.12-0.58,0.35-0.93
			c0-0.12,0.58-0.12,0.58-0.24c0.11-0.46,0.23-0.7,0.58-1.16c0-0.12,0.23-0.58,0.35-0.58c0.12-0.12,0.46,0,0.58,0
			c0.12-0.23,0.12-0.81,0.23-1.05c0.46-0.46,0.93-1.05,1.4-1.51c0-0.12,0.23-0.58,0.23-0.58c0.12,0,1.51-0.35,0.58-0.58
			c-0.23-0.12-0.23,0.12-0.23,0.23c-0.47-0.11,0-0.46,0.23-0.58c0.23-0.23,0.23-0.35,0.35-0.58c0-0.12-0.12-0.7,0-0.7
			c0.23-0.23,0.81-0.35,0.81-0.93v-0.24c0.24-0.46,0.7-0.58,0.93-0.93c0.11-0.12-0.12-0.58,0-0.58c0.23-0.23,0.93-0.35,0.93-0.93
			c0-0.47,0.7-0.58,0.7-1.28c0-0.46,0.46-0.35,0.58-0.58c0.46-0.7,0.58-1.51,1.51-1.75c0.11-0.35,0-1.05,0.23-1.28h0.35
			c0-0.12-0.12-0.58,0-0.7h0.35c0-0.12-0.11-0.58,0-0.58c0.24-0.23,0.81-0.35,0.81-0.93c0-0.35,0.58-0.35,0.7-0.58
			c0.23-0.35,0.11-0.81,0.35-1.16c0.12-0.12,0.47-0.12,0.58-0.23c0.46-0.81,0.7-1.63,1.16-2.56c0.11-0.11,0.35,0,0.35-0.35
			c0-0.81,0.81-0.7,0.93-1.4c0-0.12,0-0.35,0-0.35c0.12-0.23,0.81-0.7,0.93-1.05c0.11-0.11-0.12-0.46,0-0.58h0.35
			c0-0.11-0.11-0.58,0-0.58c0.23-0.24,0.35-0.24,0.58-0.58c0-0.12,0.12-0.81,0.23-0.93h0.35c0-0.11-0.12-0.46,0-0.58
			c0.23-0.24,0.93-0.35,0.93-0.93c0-0.81,0.7-1.74,1.16-2.44c0.7,0,1.16-0.23,1.28-0.58c0.81,0,1.51-0.11,1.86,0.35
			c0.81,0.12,0.58-0.93,1.75-0.7c0.35,0.46,0.93,0.58,1.28,0.93c0.11,0.12,0.23,0.93,0.58,1.16c0,1.16-0.58,1.28-0.81,2.79
			C92.24,101.6,92.47,102.53,92.35,103.58z M78.29,124.96c-0.12-0.23,0-0.58-0.47-0.58c-0.23,1.16-1.16,2.21-1.74,3.14
			c-0.12,0.23-0.12,0.58-0.35,0.81c-0.11,0.23-0.46,0.46-0.58,0.58c-0.11,0.35-0.11,0.7-0.23,0.93c-0.11,0.12-0.23,0.12-0.35,0.35
			c-0.47,0.81-0.7,1.51-1.28,2.21c-0.11,0.12-0.46,0.35-0.58,0.58c-0.12,0.12,0,0.47,0,0.58c-0.12,0.12-0.58,0.12-0.58,0.23
			c-0.7,1.05-1.16,2.44-1.86,3.49c-0.23,0.35-0.81,0.7-1.16,1.16c-0.11,0.23-0.11,0.58-0.46,0.93c-0.12,0.12-0.35,0.35-0.58,0.7
			c-0.11,0.23-0.11,0.58-0.23,0.81c-0.12,0.23-0.46,0.46-0.58,0.58c-0.46,0.7-0.46,0.93-0.93,1.28c-0.12,0,0,0.47,0,0.58
			c-0.35,0.47-0.93,0.7-1.16,1.28c-0.23,0.35-0.23,0.7-0.35,0.93c-0.11,0.12-0.58,0.12-0.7,0.23c-0.12,0.12,0,0.46,0,0.58
			c-0.12,0.23-0.46,0.46-0.58,0.7c-0.11,0.12-0.58,0.35-0.58,0.58c-0.11,0.23,0.12,0.81,0,1.16c0,0-0.58-0.12-0.58,0
			c-0.24,0.11,0.11,0.81,0,1.05c1.39-0.23,3.14-0.23,4.53-0.35c1.51-0.11,2.91-0.23,4.3-0.35c0.23-1.39,0.35-2.79,0.58-3.37v-0.23
			c0-0.35,0.35-0.35,0.35-0.35c0.11-0.46-0.23-1.16,0-1.63c0,0,0.23,0,0.23-0.23c0.11-0.46,0.11-0.7,0.35-0.93
			c0.81-0.7,0.46-2.09,0.58-3.37c0.35-0.11,0.47-0.23,0.35-0.58c-0.11-1.05,1.05-0.81,0.93-1.75c0.35-1.05,0.11-2.21,0.35-3.14h0.23
			c0.12-0.11,0-0.46,0-0.58c0.12-0.46,0.35-0.35,0.58-0.58c0.12-0.11,0-0.58,0-0.58c0.12-0.58,0-0.7,0.35-0.93
			c0.11-0.23,0-0.58,0-0.7c0.23-0.81,0.58-1.51,0.58-2.44C77.24,127.06,78.17,126.36,78.29,124.96z M70.62,172.16
			c-0.12-0.7,0.23-1.63-0.58-1.4C70.04,171.35,70.15,171.93,70.62,172.16z M70.62,172.74c-0.12,0.35,0.11,1.16,0.23,0.58
			C70.96,172.85,70.73,172.16,70.62,172.74z M71.78,174.13c-0.11-0.23,0.12-1.63-0.35-0.81c0.12,1.16-0.23,2.56,0.7,3.02
			C72.24,175.76,71.9,174.83,71.78,174.13z"/>
		<path class="st0" d="M126.43,151.58c0.58,0.47-0.12,1.16-0.24,1.51c-0.23,0.7-0.46,1.28-0.58,1.86c-0.24,0.93-0.12,1.74-0.35,2.67
			c-0.35,1.28-0.58,2.1-1.16,3.14c-0.11,0.46,0.23,0.58,0.23,0.23c0.35,0,0.24,0.35,0.35,0.58c0,0.7-0.11,1.63-0.35,2.21
			c-0.11,0.93-0.23,1.63-0.58,2.09c0,0.24-0.12,0.81-0.23,0.93c-0.58,0.46-0.93,0.81-1.05,1.63c-0.58,0.11-0.93,0.7-1.74,0.58
			c-0.7,0.23,0,1.63-0.7,1.74c-1.4,0.23-1.86-0.58-2.79-0.81c0.81-1.28-0.58-0.93-0.58-2.09c-1.28-0.12-3.02-2.21-3.95-0.58
			c-0.7-0.58-1.05-1.51-1.51-2.21c-0.12-0.23-0.7-0.58-0.81-0.93c-0.12-0.12,0-0.46,0-0.58c-0.35-0.35-1.16-0.93-1.05-2.21
			c-1.4-1.62-2.21-3.83-2.44-6.63c0.23-0.81-0.58-0.93-0.81-1.39c-0.35-0.35-0.46-0.81-1.05-1.16c-0.23-1.63-0.35-3.49-1.16-4.53
			c-0.23-1.4,0.24-2.79-0.35-4.07c-0.12-0.11-0.58-0.35-0.58-0.58c-0.23-0.47-0.12-0.81-0.35-1.16c-0.35-1.28,0.12-4.18-1.16-5.81
			c-0.58,0.35-0.12,0.93-0.23,1.51c0,0-0.35,0-0.35,0.35c0,0.11,0.11,0.81,0,0.81c-0.35,0.23-0.35,0.46-0.35,0.93
			c0,0.12,0,0.7,0,0.7c-0.35,0.23-0.35,0.46-0.35,0.93c0,0.12,0,0.58,0,0.58c-0.46,0.35-0.46,1.4-0.58,2.44c0,0,0,0.58,0,0.7
			c-0.24,0.12-0.47,0.7-0.58,1.4c-0.23,0.81-0.23,1.05-0.35,2.09c0,0.12,0,0.7,0,0.7c-0.23,0.35-0.23,0.47-0.23,0.93
			c0,0.11,0,0.58,0,0.58c-0.35,0.23-0.35,0.46-0.35,0.93c0,0.12,0,0.58,0,0.58c-0.58,0.46-0.7,2.32-0.93,3.72
			c0,0.12,0.11,0.58,0,0.58c-0.58,0.46-0.46,2.91-0.81,3.95c-0.12,0.12,0,0.58,0,0.58c-0.46,0.23-0.46,0.46-0.46,0.93
			c0,0.12,0,0.7,0,0.7h-0.24c-0.23,1.05-0.23,2.21-0.35,3.25c-0.35,2.21-0.81,4.3-1.16,6.51c-0.93,0.81-2.21,1.4-3.72,1.16
			c-1.4-0.12-2.21-1.16-3.02-1.75c-1.4-0.35-2.79-0.7-3.61-1.28c-0.23-0.23-0.23-0.46-0.35-0.58c-0.11-0.35-0.11-0.46-0.23-0.93
			c-0.11-0.24-0.35-0.35-0.35-0.35c-0.12-0.7,0.23-1.74,0.35-2.79c0-0.7-0.11-1.74,0-2.32c0-0.58,0.35-1.16,0.58-1.63
			c0.23-1.28,0.12-3.25,0.58-4.53c0-0.23-0.12-0.58,0-0.7c0.46-0.35,0.11-1.28,0.58-1.98c0-0.23,0.11-0.81,0.35-0.93
			c0.24-0.35,0.12-0.58,0.24-1.05c0-0.12-0.12-0.58,0-0.58c0.11-0.11,0.46-0.7,0.58-1.16c0,0-0.35-0.46-0.23-0.58
			c0,0,0.23-0.12,0.23-0.35c0-0.81,0.58-2.67,1.28-3.37c0.23-1.16,0-2.33,0.35-3.37c0-0.11,0.35,0,0.35-0.35
			c0-0.12-0.12-0.81,0-0.81h0.23c0-0.23-0.12-0.58,0-0.7h0.35c0-0.11-0.12-0.46,0-0.58c0.23-0.24,0.46-1.63,0.58-2.21
			c0,0,0.23-0.12,0.23-0.23c0.23-0.58,0-1.86,0.35-2.67c0.58-0.58,0.58-1.51,1.51-1.63c-0.47-0.46-0.47-1.16,0-1.75
			c0.35-0.46,0-0.81,0.35-1.97c0.12-0.35,0.47-0.46,0.58-0.81c0.35-1.28,0.46-2.32,0.93-3.72c0-0.12,0.35,0,0.35-0.35
			c0-0.23-0.11-0.7,0-0.81c0-0.23,0.47-0.23,0.58-0.35c0.23-0.47,0-0.81,0.23-1.16c0.23-0.35,0-1.28,0.35-1.63
			c0.23-0.23,0.23-0.46,0.58-1.16c0-0.23,0.11-0.46,0.35-0.58c0-0.23,0.24-0.35,0.24-0.35c0.11-0.35,0.11-0.7,0.46-1.16
			c0.23-0.58,0.81-1.39,0.58-2.21c0.58-0.12,0.23-1.16,1.16-0.93c0-0.7,0-1.4,0.35-1.74c0.81-0.12,2.09-1.05,3.37-0.35
			c0.23,0.23,0.35,0.46,0.58,0.58c0.23,0.23,0.58,0.11,0.93,0.35c0,0,0.46,0.46,0.58,0.58c0,0.12-0.11,0.47,0,0.58h0.24
			c0,0.12-0.12,0.58,0,0.58c0.35,0.23,0.35,0.93,0.35,2.21c0,0.35,0.12,0.81,0,1.28c0,0-0.35,0-0.35,0.23
			c0,0.58,0.46,1.16,0.58,1.74c0.24,0.7,0,0.93,0.35,1.63c0,0.12,0.35,0.12,0.46,0.35c0.12,0.58,0.12,1.51,0.58,2.32
			c0,0.23,0.46,0.47,0.58,0.58c0.35,0.81,0.46,2.09,0.81,3.14c0,0.12,0.35,0,0.35,0.35c0.35,1.4,0.7,3.14,1.16,4.88
			c0.12,0.23,0.23,0.7,0.35,1.28c0.11,0.23,0.11,0.46,0.23,0.93c0.23,0.23,0.58,0.58,0.81,1.16c0,0.11-0.12,0.35,0,0.58
			c0,0.23,0.35,0.58,0.58,1.16c0,0.12-0.12,0.58,0,0.7c0,0.35,0.35,0.58,0.58,1.16c0,0.23-0.12,0.47,0,0.7
			c0,0.23,0.46,0.7,0.58,1.39c0,0.24,0,0.47,0,0.7c0,0.35,0.12,0.58,0.24,0.93c0.11,0.35,0.23,0.47,0.35,0.93
			c0.12,0.23,0.46,0.58,0.58,1.16c0,0.12,0,0.47,0,0.58c0.12,0.35,1.28,1.28,1.05,2.21c0.81-0.58,1.05-2.21,1.51-3.37
			c0.12-0.35,0.47-0.47,0.58-0.58c0.23-0.58,0-1.28,0.23-2.21c0.23-0.46,0.81-1.4,0.93-2.09c0.11-0.46,0-0.81,0.35-1.51
			c0-0.12,0.24,0,0.24-0.23c0.11-0.58,0.11-0.7,0.35-1.05c0.12-0.23,0.47-0.7,0.7-1.16c0.11-0.58,0-1.28,0.23-1.86
			c0.11-0.12,0.35,0,0.35-0.23c0-0.58,0.46-0.35,0.58-0.7c0.23-0.46,0.12-0.93,0.35-1.28c0.23-0.7,0.35-1.51,1.16-1.74
			c0-0.23-0.12-0.58,0-0.93c0-0.23,0.23-0.23,0.23-0.23c0.23-0.58,0.11-0.93,0.35-1.28c0-0.23,0.58-0.23,0.58-0.35
			c0.12-0.11-0.11-0.46,0-0.58c0.12-0.23,0.58-0.46,0.7-0.58c0.35-0.58,0.35-1.51,0.58-2.21c0.12-0.12,0.58-0.23,0.58-0.35
			c0.35-0.46,0-0.81,0.35-1.4c0-0.23,0.58-0.23,0.58-0.35c0.11-0.12-0.12-0.46,0-0.58c0.11-0.23,0.46-0.46,0.58-0.58
			c0.23-0.46,0.11-0.81,0.35-1.4c0.12-0.23,0.47-0.35,0.58-0.58c0.12-0.24,0.12-0.81,0.23-1.16c0.35-0.23,0.58-0.23,0.81-0.58
			c0.23-0.58,0.58-1.16,0.81-1.86c0.12-0.23,0.35,0,0.35-0.35c0-0.11,0.23-0.46,0.23-0.58c0.23-0.35,0.58-0.7,0.58-1.16
			c0-0.11,0.35-0.58,0.35-0.58c0.12-0.23,0.47-0.46,0.58-0.7c0.12-0.12-0.11-0.46,0-0.58c0.12-0.12,0.58-0.12,0.58-0.23
			c0.35-0.58,0.7-1.28,1.05-1.98c0-0.11,0.23,0,0.35-0.23c0.23-1.05,0.58-1.28,1.16-2.09c0.12-0.11,0.24,0,0.24-0.46
			c0-0.12,0.23-0.35,0.35-0.58c0.12-0.23,0.58-0.7,0.58-1.16c0-0.11,0.23-0.46,0.35-0.58c0.11-0.35,0.35-0.47,0.58-0.58
			c0-0.23-0.11-0.58,0-0.58c0.24-0.35,0.81-0.58,0.93-1.4c0.81-0.11,1.51-0.23,2.09-0.58c0.12,0,0.58,0.12,0.58,0
			c0.7-0.7,1.86-0.11,2.79,0.58c0.24,0.12,0.24,0.7,0.35,0.81c0.35,0.12,0.81,0.12,1.16,0.58c0.35,0.23,0.35,0.93,0.58,1.4
			c0.23,0.35,0.81,0.46,1.05,1.28c0.23,1.63-0.35,2.91-1.28,4.3c-0.58,0.7,0.12,0.81-0.35,1.86c-0.7,0.11-0.58,1.05-0.81,1.51
			c-0.35,0.46-0.46,0.35-0.7,1.16c0,0.35-0.81,1.16-1.16,1.86c0,0.23,0,0.46,0,0.58c0,0.35-0.12,0.11-0.23,0.35
			c-0.35,0.23-0.7,0.46-0.7,0.58c-0.23,0.35,0.12,0.93,0,1.16c-0.11,0.23-0.46,0.35-0.7,0.58c-0.12,0.24-0.46,0.58-0.58,0.81
			c-0.23,0.47-0.11,1.16-0.58,1.75c-0.11,0.11-0.46,0.46-0.58,0.58c-0.24,0.35-0.12,1.05-0.93,1.16c0.23,0.93-0.93,1.75-0.93,2.56
			c0,0.35-0.46,0.35-0.58,0.58c-0.12,0.12,0.11,0.47,0,0.58h-0.35c-0.23,0.47-0.12,0.81-0.35,1.16c0,0.23-0.23,0-0.23,0.46
			c0,0.35-0.46,0.35-0.58,0.58c-0.11,0.11,0.12,0.46,0,0.58h-0.35c0,0.11,0.11,0.46,0,0.58h-0.23c-0.47,0.7-0.58,1.51-1.28,2.09
			c0.12,0.46-0.35,0.46-0.35,1.05c0.7-0.12,0.7,0.23,0.35,0.23c0.35,0.81-0.93,0.81-0.93,1.51c0,0.23-0.23,1.05-0.35,1.16h-0.23
			c-0.11,0.11,0,0.58,0,0.7c-0.23,0-0.7,0.46-0.93,0.93c0.35,0.93,0.11,1.86-0.35,2.67c0,0.23-0.23,0-0.23,0.35
			c0,0.35-0.12,0.58-0.35,0.93c-0.23,0.46-0.81,1.86-1.16,2.79c0,0.12,0.12,0.47,0,0.58c-0.46,0.23-0.58,0.23-0.7,0.58
			c-0.23,0.58-0.35,1.28-0.58,1.86c-0.11,0.11-0.35,0-0.35,0.35c0,0.35-0.47,0.7-0.58,1.16
			C125.96,151.93,126.43,151.93,126.43,151.58z M114.57,165.88c-0.23,0-0.11-0.11-0.23-0.23c-0.35-0.23-0.93-0.35-0.46,0
			c0.23,0.12,0.23,0.47,0.46,0.58C114.57,166.35,115.04,165.88,114.57,165.88z"/>
		<path class="st0" d="M177.02,128.34c-0.11-0.12-0.35-0.35-0.58-0.58c-0.24-0.23-0.58-0.35-0.93-0.58
			c-0.23-0.23-0.58-0.23-0.81-0.58c-0.11-0.11,0-0.46-0.46-0.46c0-1.86,0-3.6,0.46-5.46c0.23-1.4,1.16-2.67,1.16-3.96
			c0.11-1.16-0.47-1.97-0.58-3.25c0-0.35,0.11-1.05,0-1.28c-0.35-1.05-1.28-1.86-1.28-3.02c-0.46,0.11-0.58-0.23-0.58-0.58
			c-1.16,0-1.98-0.11-2.79,0.35c-0.23,0.11-0.46,0.35-0.93,0.58c-0.35,0.11-0.58,0.11-0.93,0.23c-0.11,0.11,0.12,0.35-0.23,0.35
			c-0.93,0-2.32,1.63-3.02,2.33c-0.12,0.23-0.81,0.46-1.05,0.7c-0.12,0.23,0,0.7-0.24,0.93c-0.46,0.46-1.05,0.93-1.51,1.51
			c-0.35,0.46-0.7,1.28-1.51,1.16c0,0.7-0.23,1.16-0.7,1.63c-0.23,0.47-0.58,0.58-0.93,0.93c0,0.11,0.12,0.46,0,0.58
			c-0.7,0.58-1.05,1.74-1.74,3.02c-0.12,0.23-0.24,0-0.35,0.35c0,0.46-0.46,0.58-0.58,1.16c0,0.46-0.46,0.58-0.58,1.16
			c0,0.58-0.81,1.4-1.28,1.98c0.23,1.28-0.58-0.35-0.58,0.58c-0.46,1.16-0.93,2.44-1.51,3.95c0,0.11,0.11,0.58,0,0.58
			c0,0-0.23,0-0.35,0c-0.11,0.58,0,1.05-0.23,1.51c0,0.11-0.58,0.46-0.58,0.58c-0.23,0.35,0.12,0.7,0,1.05c0,0.11-0.7,0.46-0.7,0.58
			c-0.23,0.58,0.12,1.16-0.35,1.74c0,0.23-0.46,0.23-0.58,0.35c-0.11,0.23,0.12,0.58,0,0.93c0,0.12-0.58,0.12-0.58,0.23
			c-0.24,0.58-0.24,1.28-0.35,1.86c-0.12,0.7-0.23,1.51-0.58,2.09c-0.11,0.35-0.58,0.7-0.93,1.4c-0.12,2.56-1.28,4.65-1.51,7.21
			c-0.46-0.11-0.23-0.7-0.35-1.16c-0.58,0.24-0.12,1.63-0.35,2.79c0,0-0.23,0.11-0.23,0.23c0,0.93,0,2.32-0.35,3.37
			c0,0.35-0.23,0.7-0.23,0.93c0,0.7,0.23,0.81,0.23,1.28c0,0.35-0.58,0.93-0.58,1.74c0-0.11,0.35,0.24,0.35,0.24
			c0.12,0.7-0.35,0.81-0.35,1.63c0,0.35,0.35,0.46,0.35,0.93c0,0.93-0.23,1.63,0,2.32c0.12,0.58,0.58,1.4,0.81,1.98
			c0.46,0.58,0.58,1.28,1.28,1.51c0.93,0.12,1.86-0.23,2.79-0.7c0.11,0,0.46,0.11,0.58,0c0.12,0-0.11-0.47,0-0.58
			c0.24-0.12,0.7-0.12,0.93-0.23c0.23-0.23,0.93-0.58,1.28-0.93c0.23-0.11,0.46-0.58,0.58-0.7c0.46-0.35,0.93-0.46,1.51-0.93
			c0.12-0.11,0-0.23,0.23-0.23c0.7,0,0.35-0.58,0.93-1.16c0.11-0.12,0.7,0.11,0.7,0c0.12-0.23,0.12-0.47,0.35-0.7
			c1.28-1.39,2.79-3.14,4.3-4.88c0.46-0.47,1.05-1.05,1.4-1.51c0.58-0.7,0.81-1.28,1.28-1.86c0.11-0.11,0.23,0,0.23-0.23
			c0-0.11,0.35-0.58,0.35-0.58c0.12-0.23,0.58-0.23,0.58-0.35c0.12-0.12-0.11-0.47,0-0.58c0.12-0.12,0.7,0.11,0.7,0
			c0.23-0.46,0.58-1.05,0.93-1.63c0.81-1.16,1.4-2.44,2.32-3.95c0.12-0.12,0.35,0,0.35-0.35c0-0.35,0.58-0.93,0.93-1.51
			c0.58-0.7,0.93-1.4,1.51-2.44c0.11-0.11,0.35-0.23,0.35-0.35c0.11-0.23,0.11-0.81,0.23-1.16c0.11-0.12,0.58-0.12,0.58-0.23
			c0.11-0.23,0-0.47,0-0.7c0.23-0.11,0.58-0.11,0.7-0.23c0.23-0.58,0.23-0.93,0.58-1.63c0.11-0.11,0.23,0,0.23-0.23
			c0-0.11,0.46-0.58,0.46-0.7c0.7-0.81,0.93-1.28,1.75-1.16c1.51,0.23,1.74,1.86,1.16,3.37c0,0.23-0.23,0-0.23,0.35
			c0,0.12,0,0.23,0,0.23c-0.35,0.81-1.28,2.79-1.86,4.07c0,0.12-0.12,0.35-0.23,0.58c0,0.11-0.23,0.81-0.35,0.93
			c0,0-0.23-0.11-0.23,0c0,0.12,0.12,0.47,0,0.58h-0.46c-0.12,0.35,0,0.7-0.23,1.16c-0.12,0.11-0.46,0.11-0.58,0.35
			c-0.12,0.24,0.12,0.58,0,0.7c-0.12,0-0.35-0.12-0.35,0c-0.11,0.35,0,0.7-0.35,1.16c0,0.12-0.24,0-0.24,0.24
			c0,0.46-0.46,0.46-0.58,0.7c-0.24,0.35,0,0.7-0.35,1.16c0,0.11-0.23,0-0.23,0.23c-0.12,0.58-0.58,0.93-0.93,1.39
			c0,0.12-0.11,0.81-0.35,0.81h-0.35c0,0.12,0.23,0.58,0,0.58c0,0.12-0.58,0.81-0.58,1.51c-0.81,0.12-0.7,0.93-0.93,1.28
			c0,0.23-0.47,0.23-0.58,0.35c-0.12,0.24,0.11,0.7,0,0.93c-0.23,0.35-1.16,0.46-1.16,1.16c0,0.35-0.11,0.58-0.35,0.93
			c-0.24,0.46-0.58,0.46-1.05,0.93c-0.11,0.35-0.23,0.93-0.58,1.28c-0.35,0.46-1.16,1.05-1.75,1.74c-0.35,0.35-0.58,0.81-0.93,1.28
			c-0.23,0.35-0.58,0.58-0.81,0.93c-0.35,0.23-0.81,0.58-1.05,0.81c-0.23,0.35-0.35,0.93-0.58,1.28c-0.12,0.12-0.46-0.12-0.58,0
			c-0.23,0.23-0.46,0.35-0.7,0.58c0,0.11,0.23,0.46,0,0.7c-0.12,0.12-0.93,1.16-1.4,1.16c-0.58,0-0.58,0.93-1.05,1.16
			c-0.81,0.12-1.4,0.47-2.09,0.93c-0.12,0.11,0.11,0.35-0.35,0.35c0,0-0.35,0.23-0.58,0.23c-0.11,0.11-0.46,0.7-0.58,0.7
			c-0.58,0.23-0.93,0.23-1.28,0.35c-0.7,0.23-2.67,0.58-4.3,0.23c0,0,0-0.23-0.23-0.23c-0.11,0-0.23,0-0.35,0
			c-0.12-0.12-0.12-0.35-0.35-0.35c-0.35-0.12-0.7,0-1.16-0.35c-0.11-0.11-0.11-0.58-0.23-0.58c-0.46-0.24-0.7-0.24-1.28-0.58
			c-0.12-0.23,0.12-0.35-0.35-0.35c-0.11,0-0.46-0.23-0.58-0.35c-0.23-0.11-0.46-0.35-0.58-0.58c-0.35-0.12-0.58-0.35-0.93-0.58
			c-0.11,0-0.81-0.12-0.93-0.23c-0.12-0.24,0.35-0.35,0.35-0.35c0.12-0.23-0.81-0.46-0.93-0.58c-0.23-0.58,0.35-1.51-1.05-1.05
			c0.46-1.05-0.23-1.28-0.81-1.51c-0.35-1.16-0.35-2.56-0.58-3.61c-0.23-0.81-0.7-1.39-0.93-2.09c0-0.23,0.11-1.16,0-1.28
			c-0.47-0.46,0.11-0.35,0-0.93c0,0.12-0.24-0.23-0.35-0.35c0-0.12-0.12-1.75,0-2.32c0.23-0.47,0.46-0.35,0.58-1.28
			c0.46-1.97,0.23-3.72,0.7-5.46l0.23-1.28c0.7-0.47,0.35-2.56,0.93-3.37c0.23-0.23,0.23-0.46,0.23-0.93
			c0.11-0.23,0.46-0.12,0.46-0.23c0.23-0.58,0-0.93,0.35-1.51c0.11-0.35,0.11-0.58,0.23-1.05c0.11-0.23,0.23-0.46,0.35-0.81
			c0.11-0.35,0.23-0.23,0.23-0.35c0.23-0.7,0.11-1.51,0.35-2.09c0.24-0.7,0.47-0.47,0.58-1.28c0.12-0.35,0.23-0.46,0.23-0.93
			c0.23-0.23,0.47-0.58,0.7-1.16c0.23-0.58,0.35-1.16,0.58-1.86c0.35-1.05,0.81-2.09,1.28-3.25c0.11-0.35,0.11-0.7,0.23-0.93
			c0.23-0.23,0.7-0.58,0.7-0.7c0.46-1.16,0.7-2.21,1.16-3.26c0.11-0.23,0.58-0.46,0.58-0.81c0.23-0.23,0.11-0.58,0.35-0.81
			c0-0.23,0.23,0,0.23-0.35c0.24-0.81,0.47-1.28,1.05-2.09c0.23-0.46,0.58-0.81,0.81-1.63c0.24-0.23,0-0.58,0.35-0.58
			c0.12-0.24,0.58-0.12,0.58-0.58c-0.12-0.7,0.81-1.05,0.93-1.75c0-0.11,0-0.46,0-0.58c0.12-0.24,0.58-0.24,0.58-0.35
			c0.23-0.58,1.05-1.4,1.05-1.86s0.47-0.46,0.58-0.58c0.35-0.58,0.23-1.05,0.58-1.51c0.23-0.35,0.58-0.47,0.93-1.05
			c0.24-0.35,0.58-0.81,0.81-1.16c0.58-0.58,1.16-1.4,1.98-2.09c0.23-0.35,0.58-0.58,0.81-1.05c0.23-0.12,0.23-0.7,0.35-0.81
			c0.11-0.23,0.58,0,0.58,0c0.47-0.58,1.28-1.4,2.09-2.09c0.7-0.46,1.16-0.81,1.86-1.16c0.23-0.23,0-0.46,0.35-0.46
			c0.46,0,0.46-0.46,0.58-0.58c0.12-0.11,0.58,0.12,0.58,0c0.46-0.46,1.28-0.58,2.56-0.93c1.28-0.35,1.98-0.7,4.18-0.58
			c0,0,0.24,0.35,0.35,0.35c0.58,0,0.46-0.46,0.93,0h0.23c0.58,0.12,1.4,0.35,2.09,0.81c0.35,0.12,0,0.35,0.46,0.35
			c0.12,0,0.35,0.12,0.58,0.23c0.7,0.35,1.4,0.93,2.09,1.63c0.81,0.81,1.05,1.16,1.63,2.09c0.11,0.12,0.23,0,0.23,0.35
			c0,0.23,0.46,1.28,0.35,1.86c0.93-1.16,1.28-2.56,2.09-3.72c0.11-0.12,0.58-0.23,0.58-0.23c0.11-0.23,0-0.46,0-0.58
			c0.23-0.35,0.35-0.35,0.58-0.58c0.12-0.11,0.24-0.81,0.35-0.81c0.58-0.23,1.05,0,1.28-0.58c0.35,0.24,1.75,1.16,0.81,1.63
			c0.12,0.47,0.35,0,0.35,0c0.46,0,0.46,0.58,0.93,0.93c0.12,0.81-0.46,1.74-0.58,2.67c-0.12,0.7,0.35,0.93,0.23,1.28
			c0,0.46-0.46-0.23-0.58,0.35c0.81,0.11,0.12,0.81,0,1.16c-0.12,0.81-0.46,1.75-0.93,2.44c0,0.23-0.24,0-0.24,0.35
			c0,0.11-0.23,0.46-0.35,0.58c0,0.11,0.11,0.46,0,0.58c-0.58,0.58-0.81,1.16-1.28,2.44c0,0.23-0.23,0.46-0.35,0.7
			c-0.12,0.23,0,1.16-0.23,1.51c-0.23,0.11-0.23,0.11-0.35,0.58c0,0.23-0.23,0.11-0.23,0.23c-0.46,1.4-1.05,2.91-1.51,4.3
			c-0.47,1.39-0.81,2.79-1.63,3.95C178.3,128.22,177.26,128.57,177.02,128.34z"/>
		<path class="st0" d="M225.28,96.6c-0.23,0-0.35,0.35-0.58,0.35c-0.12-0.12,0-0.35-0.35-0.35c-0.58,0-0.58,0.23-1.05,0.35
			c-0.35,0-0.7-0.12-1.16,0c-0.47,0-1.16,0.35-1.75,0.58c-0.35,0-0.81-0.12-1.4,0c-0.23,0-0.58,0.46-1.39,0.23
			c-0.47-0.12-0.93-0.46-2.09,0c-0.35,0.23-0.47,0.46-1.05,0.58c-1.28,0.23-1.97,0-3.25,0.7c-0.58,0.35,0.23,0.81,0.23,0.93
			c0.11,0,0.81,1.74,0.35,2.09h-0.35c0,0.23,0.35,0.35,0.35,0.35c0,0.7-0.35,1.63-0.58,2.44c0,0.23,0.11,1.05,0,1.16
			c-0.12,0.23-0.12,0.23-0.35,0.7c0,0.23-0.12,0.7-0.23,1.16c0,0.11-0.58,0.81-0.7,1.28c-0.23,0.81-0.11,1.63-0.35,2.44
			c0,0-0.23,0-0.23,0.23c-0.12,0.81-0.12,1.05-0.35,1.86c0,0.11-0.23,0-0.35,0.35c0,0.23-0.11,0.35-0.23,0.58
			c0,0.35,0.12,0.81,0,1.16c0,0.12-0.35,0-0.35,0.35c0,0,0.11,0.23,0,0.35c-0.12,0.23-0.12,0.35-0.24,0.93
			c0,0.35-0.35,1.86-0.58,2.67c0,0.11-0.35,0-0.35,0.35v0.24c-0.12,0.35-0.12,0.7-0.35,1.39c0,0.24-0.58,1.63-0.93,2.33
			c-0.58,2.09-1.05,4.18-1.86,6.51c0,0.12-0.12,0.46-0.23,0.58c-0.35,0.46-0.24,1.74-0.58,2.67c0,0-0.23,0.11-0.35,0.35
			c-0.12,0.35-0.12,0.7-0.23,1.28c-0.23,0.35,0,0.58-0.35,1.51c0,0.12-0.23,0-0.35,0.23c0,0.12,0.11,0.23,0,0.35
			c-0.47,1.28-1.28,4.07-1.86,5.69c-0.58,1.98-1.16,4.19-1.75,6.51c-0.23,1.05-0.46,2.09-0.93,3.26c-0.12,0.7-0.23,1.51-0.7,2.21
			c-0.11,0.58-0.35,1.4-0.58,2.09c-0.23,0.7,0,1.05-0.35,1.98c0,0.23-0.12,0.46-0.23,0.81c0,0.23-0.35,0.23-0.35,0.35
			c-0.12,0.7,0,1.63-0.23,2.44c0,0.11-0.35,0-0.35,0.35c0,0.12,0,0.23,0,0.23c-0.23,0.81-0.58,2.56-0.93,3.72
			c-0.23,1.51-0.81,3.02-0.81,4.65c0.23,0.46,1.16-0.12,2.09-0.35c0.58-0.23,1.05-0.7,1.74-0.7c0.7,0,1.16-0.12,1.86-0.35
			c0.23,0,0.12-0.23,0.35-0.23c0.7,0,1.16-0.12,2.09-0.35c1.51-0.23,3.95-0.35,6.51-0.23c0.35,0.23,0.7,0.58,1.16,1.16
			c0.35,0.35,1.16,0.81,0.58,1.28c0.23,1.05-0.7,0.7-1.16,0.93c-0.11,0,0,0.24-0.35,0.24c-0.12,0-0.23-0.24-0.23-0.24
			c-0.24,0-0.35,0.24-0.7,0.24c-1.16,0.23-2.56,0.23-3.95,0.35c-0.58-0.11-0.58,0.47-0.93,0.58c-0.24,0.23-0.81,0.23-0.93,0.58
			c-0.93-0.23-1.63,0.35-2.44,0.58c-0.46,0.23-0.81,0.58-1.39,0.7c-0.7,0.23-0.93,0.12-1.4,0.35c-0.7,0.46-2.32,0.58-3.37,1.51
			c-0.46,0.23-0.23,1.28-0.58,1.74c-0.35,0.35-0.93,0.47-1.16,1.05c-1.51,0.23-2.21-0.47-3.14-1.05c-0.46,0.35-1.16,0.35-1.75,0.58
			c-0.35,0.23-0.46,0.7-0.58,0.7c-0.35,0.23-0.81-0.12-1.28,0c-0.11,0.11-0.23,0.46-0.7,0.58c-0.12,0.11-0.35,0-0.58,0
			c-0.35,0.23-1.05,0.81-2.09,0.7c0.23,0-1.16-0.81-1.86-0.93c-0.11-1.63,0.81-2.09,1.63-2.79c0.11-0.12,0.58-0.58,0.58-0.58
			c0.23-0.11,0.7,0.12,0.81,0c0.46-0.35,0.58-1.28,1.28-0.93c-0.12-1.51-1.51-2.21-1.86-3.72c0-0.12,0-0.7,0-0.81
			c0.11-0.12,0.35-0.47,0.35-0.35c0-0.58-0.35-0.58-0.35-1.28c0.11-0.81,0.35-1.51,0.35-2.44c0,0-0.35-0.23-0.35-0.58
			c0.11-0.11,0.35,0,0.35-0.23c0.11-1.05,0.11-2.79,0.23-3.72c0.23-1.05,0.35-2.09,0.93-2.79c-0.7-2.09,0.93-3.95,1.05-6.39
			c0.12-1.51,0.58-2.33,0.93-3.96c0.11-0.58,0.23-1.16,0.58-1.86c0-0.23,0.23,0,0.23-0.35c0.23-0.58,0.11-1.98,0.35-2.67
			c0-0.12,0.24,0,0.24-0.35c0.11-0.58,0.46-0.7,0.58-1.51c0.23-0.46,0-0.93,0-1.28c0.12-0.12,0.7-0.47,0.7-0.58
			c0.23-0.7,0.11-1.63,0.23-2.32c0,0,0.35-0.35,0.35-0.47c0.24-0.58,0-0.7,0.35-1.51c0.12-0.12,0.35,0,0.35-0.23
			c0-0.12,0-0.23,0-0.35c0.11-0.23,0.23-1.28,0.58-1.74c0.11-0.23,0.46-0.93,0.58-1.28c0.46-1.4,0.35-2.79,1.51-3.61
			c-0.46-1.51,0.58-2.32,0.93-3.37c0.12-0.58,0.47-1.16,0.7-1.98c0-0.11-0.12-0.46,0-0.58c0.11-0.35,1.16-0.58,0.81-1.16
			c0.11-0.93,0.81-1.4,0.58-2.56c0.7-0.23,0.47-1.16,1.51-0.81c-0.35-1.39,0.23-1.62,0-3.37c1.16-1.16,1.05-3.37,2.56-4.18
			c-0.23-0.81,0.12-1.28,0.23-1.98c0.12-0.11,0.35,0,0.35-0.23c0-0.11,0-0.93,0-0.93c0.46-0.23,1.05-1.98,1.51-2.79
			c0.23-0.46,0.81-1.16,0.81-1.74c0.12-0.46,0.7-0.7,0.7-1.16c0.11-0.7,1.28-1.16,0.93-2.21c0.23-0.58-2.32,0.35-2.79,0.58
			c-1.16,0.47-2.33,1.75-3.72,2.21c-1.4-0.23-1.05-2.21-2.1-2.79c0.35-1.28,1.75-1.28,2.1-2.09c0.46-0.35,0.93-0.7,1.39-1.05
			c0.23-0.11,0.58-0.7,0.81-0.93c0.46-0.23,0.81-0.12,1.28-0.23c0.12-0.12,0-0.35,0.24-0.35c0.11,0,0.46-0.23,0.58-0.23
			c2.56-1.28,5.7-2.44,8.95-3.14c0.7-0.12,0.81-0.12,1.86-0.35c0.35-0.12,0.81-0.23,1.74-0.23c0.35,0,0.35-0.46,0.58-0.35
			c0.23,0,0,0.35,0.35,0.35c0,0,0.11-0.35,0.35-0.35c0.81,0,1.05-0.23,1.86-0.23c3.02-0.35,6.63-0.35,9.19,0
			c0,0,0.11,0.23,0.23,0.23c1.51,0.12,3.49,1.4,3.14,3.72C227.73,97.65,226.56,96.72,225.28,96.6z"/>
		<path class="st0" d="M202.4,172.74c-0.7,0.11-0.35-0.93-0.93-0.93c0.35-0.7,0-1.51,0.35-2.21c0.11-0.11,0.23,0,0.23-0.35
			c0.11-0.58,0.93-0.47,1.39-0.81c0.12-0.12-0.11-0.35,0.24-0.35c0.11,0,0.58-0.23,0.58-0.23c0.7-0.46,0.93-0.58,2.09-1.05
			c1.28-0.35,2.33-0.7,3.72-1.16c1.98-0.58,3.84-1.16,5.23-1.51c0.11,0.58,0.81,0.58,0.81,1.16c0.58,0.7-0.7,1.16,0,1.16
			c1.16-0.11,1.86-0.46,2.56-0.81c-0.35-0.46-0.81-0.58-1.16-0.93c-0.35-0.35-0.23-1.16-0.93-1.16c0.12-0.81-0.12-0.81-0.46-1.63
			c0-0.23-0.12-0.46-0.23-0.93c-0.12-0.23-0.47-0.58-0.58-1.16c-0.12-0.7-0.12-1.74,0-2.79c0-1.05,0.11-0.7,0-1.51
			c-0.23-0.7,0.35-1.16,0.58-2.21c0.46-1.16,0.58-3.14,0.93-4.88c0.23-0.58,0.46-0.81,0.7-1.4c0.12-0.46,0.12-1.05,0.24-1.51
			c0.11-0.46,0.46-0.81,0.58-1.28c0.12-0.46,0.12-1.05,0.35-1.51c0.12-0.58,0.35-1.05,0.58-1.51c0.12-0.11,0.23,0,0.23-0.35
			c0.12-0.12,0-0.81,0-0.81c0.35-0.35,0.35-0.35,0.35-0.7c0.11-0.46,0.46-0.58,0.58-0.93c0.11-0.47,0.11-1.05,0.46-1.51
			c0.11-0.35,0.35-0.35,0.58-0.58c0.11-0.12-0.12-0.58,0-0.58c0.23-0.23,0.23-0.93,0.58-1.63c0.12-0.12,0.24,0,0.35-0.35
			c0-0.35,0.58-1.4,0.81-1.97c0.23-0.35,0.12-0.7,0.35-0.93c0.11-0.23,0.58-0.35,0.58-0.46c0.23-0.46,0.11-1.05,0.23-1.51
			c0.11-0.24,0.58-0.12,0.7-0.58c0-0.23-0.12-0.58,0-0.81c0-0.23,0.35,0,0.35-0.35c0-0.35,0.58-0.35,0.58-0.58
			c0.23-0.58,0.46-1.16,0.58-1.63c0.47-0.81,0.93-1.97,1.51-2.91c0.11-0.23,0.23,0,0.35-0.46c0-0.35,0.47-0.7,0.58-0.93
			c0.23-0.24,0.23-0.7,0.58-1.16c0.12-0.12,0.35,0,0.46-0.23c0-0.46,0.81-0.81,1.16-1.28c0.23-0.35,0.35-0.93,0.58-1.28
			c0.11-0.11,1.16-1.05,1.16-1.51c0.12-0.46,0.7-1.28,1.16-1.74c0.46-0.35,0.81-0.58,1.05-1.05c-0.23-0.7-1.16,0.23-1.86,0.46
			c-0.58,0-0.81,0-1.28,0.23c-0.12,0.12,0.11,0.35-0.23,0.35c-0.23,0-0.47,0.23-0.93,0.23c-0.58,0-0.46,0.35-0.81,0.7
			c-0.11,0-0.7-0.23-0.81,0c-0.11,0.12-0.58,0.23-1.16,0.58c-0.12,0,0.11,0.23-0.23,0.23c-0.24,0-0.47,0.23-0.58,0.35
			c-0.23,0.11-0.93,0.11-1.28,0.23c-0.12,0.12-0.47,0.7-0.93,0.93c-0.58,0.35-0.93,0.7-1.28,1.28c-0.93-0.12-0.12,1.39-0.81,1.51
			c-0.93,0-1.28-0.58-1.51-1.16c-0.24-0.46-0.35-1.63-0.35-2.21c0-0.23,0.23-1.05,0.35-1.16c0.23-0.23,0.58-0.23,0.58-0.58
			c0.12-0.7,1.28-2.09,2.1-2.79c0.11-0.23,0.46-0.58,0.58-0.7c0.12,0,0.7,0.12,0.7,0c0.23-0.23,0.35-0.81,0.93-0.81
			c0.23,0,0.7-0.46,0.93-0.58c0.11-0.24,0.35-0.24,0.58-0.35c0.23-0.12,0.35-0.46,0.58-0.58c0.23-0.23,0.93-0.46,1.63-0.7
			c0.12-0.12-0.11-0.35,0.23-0.35c0.47,0,0.47-0.46,0.58-0.58c0.12-0.11,0.58,0.12,0.58,0c0.35-0.23,0.7-0.11,1.51-0.58
			c0.47-0.11,0.58-0.46,0.93-0.58c0.58-0.24,1.16-0.12,1.63-0.35c0.11,0,0-0.23,0.23-0.23c0.11,0,0.23,0,0.35,0
			c0.24-0.23,0.81-0.23,1.16-0.35c0.12,0,0.23-0.58,0.35-0.58c0.23-0.11,0.58,0.12,0.81,0c0.23-0.11,0.23-0.23,0.35-0.23
			c1.05-0.46,2.1-0.11,3.02-0.46c0.35-0.12,0.35-0.23,0.7-0.35c0.24,0,0.58,0.12,0.81,0c0.23,0,0-0.23,0.47-0.23
			c0.23,0,0.35-0.35,0.58-0.35c0.93-0.11,2.33-0.11,3.72-0.23c0.24-0.11,0.47-0.35,0.81-0.35c0.58,0,1.16,0.11,1.86,0
			c0.81-0.12,0.7-0.12,2.21,0c1.98,0.11,4.18,0.11,6.04,0.58c0.12,0,0.12,0.35,0.35,0.35c0.58,0,1.51,0.12,2.44,0.23
			c0.11,0,0,0.35,0.35,0.35c0.93,0,1.51,0.46,2.33,1.05c0.35,0.12,0.7,0.12,1.16,0.23c0.23,0.12,0.23,0.23,0.35,0.35
			c0.46,0.11,0.81,0.58,1.28,0.58c0.58,0,1.75,1.05,2.44,1.51c0.46,0.23,0.81,0.58,1.51,1.28c0.24,0.12,0.35,0,0.35,0.35
			c0,0,1.4,1.28,1.74,1.74c0.81,0.93,1.28,2.32,2.56,3.02c-0.12,1.51,1.05,2.56,1.51,4.07c0,0.11-0.11,0.35,0,0.58
			c0,0.12,0.23,0.35,0.23,0.24c0.12,0.46-0.23,0.46-0.23,0.93c0-0.12,0.46,0.12,0.23,0.35c-0.35,0.23,0,0.58,0,1.39
			c0.12,0.35,0,0.81,0,1.05c0.12,0.23,0.23,0.35,0.35,0.58c0,0-0.35,0.35-0.35,0.58c0,0,0.35,0.12,0.35,0.35
			c0,0.35-0.35,2.09-0.58,2.79c-0.11,0.12,0,0.47,0,0.58c-0.23,0.12-0.46,0.7-0.58,1.51c-0.11,0.12-0.35,0-0.35,0.24
			c-0.12,0.7,0.11,1.05-0.35,1.51c0,0.11-0.12,0.93-0.23,1.05c-0.12,0-0.23,0-0.35,0c0,0.11,0.12,0.46,0,0.58h-0.23
			c-0.23,0.11,0,0.46,0,0.58c-0.58,0.35-1.16,1.86-1.63,2.79c-0.46,0.81-0.93,1.63-1.51,2.44c-0.12,0.23-0.46,0.35-0.58,0.58
			c-0.11,0.11,0.12,0.46,0,0.58c-0.23,0.12-0.81,0.35-1.05,1.05c0,0.46-0.81,0.58-0.81,1.16c-0.12,0.23-0.58,0.81-0.93,1.16
			c-1.05,1.4-2.33,2.91-3.72,4.3c-0.24,0.23-0.35,0.35-0.58,0.58c-0.23,0.35-0.7,1.05-1.16,1.51c-0.35,0.46-0.81,1.05-1.16,1.28
			c-0.23,0.23-0.81,0.11-1.05,0.35c-1.05,0.93-2.44,2.67-3.83,3.95c-0.58,0.35-0.93,0.58-1.4,0.93c-0.46,0.35-0.7,0.81-1.16,1.16
			c-0.23,0.11-0.58,0.11-0.93,0.23c-0.12,0.23-0.12,0.46-0.23,0.7c-0.81,0.7-1.98,1.28-2.79,1.86c-0.23,0.12-0.35,0.47-0.58,0.58
			c-0.24,0.12-0.7,0.12-0.93,0.35c-0.11,0,0.12,0.46,0,0.58c-0.23,0.23-0.81,0.11-1.16,0.23c-0.35,0.23-0.58,0.46-0.7,0.58
			c-0.23,0.23-0.46,0.58-0.7,0.7c-0.35,0.35-1.05,0.35-1.4,0.7c-0.81,0.47-1.4,1.16-2.56,1.75c-0.47,0.35-0.93,0.58-1.51,0.93
			c-0.11,0.12-0.35,0.47-0.58,0.58c0,0-0.46-0.11-0.58,0c-0.24,0.23-0.24,0.23-0.58,0.23c-0.35,0.12-0.12,0.23-0.35,0.35
			c-0.7,0.46-1.28,0.81-2.21,1.28c-0.11,0.23-0.46,0.23-0.81,0.35c-0.46,0.23-0.81,0.58-1.51,0.81c-0.11,0.11-0.58,0-0.7,0
			c-0.23,0.35-0.58,0.46-0.93,0.7c-0.46,0.23-0.35,0.35-1.16,0.58c0,0-0.81,0.23-0.93,0.23c-0.11,0.35-0.11,0.23-0.58,0.35
			c-0.23,0.11-0.7,0.35-1.28,0.7c-1.05,0.46-1.97,0.58-3.26,1.16c-0.23,0.11-0.7,0.58-0.7,0.58c-0.35,0.11-0.7-0.12-0.93,0
			c-0.58,0.23-1.16,0.46-1.75,0.58c-1.28,0.47-3.37,1.28-4.88,1.51c-1.05,0.23-2.32,0-3.14,0.35c-0.11,0-0.46-0.11-0.58,0
			c-0.58,0.81-0.93-0.7-1.51,0c-1.05,1.28-6.04,0.93-7.09-0.35c-0.58,0.7-1.4-0.12-2.09-0.23
			C202.75,174.71,202.29,173.9,202.4,172.74z M229.6,139.38c0.93,0.81,0.46,1.16,0.46,2.09c-0.58,0-0.7-0.46-1.05-0.58
			c0.35,1.51-0.93,1.28-0.58,2.67c0.58,0.12,0.58-0.35,0.81-0.58c0.12,0.7-0.46,0.93-0.23,1.97c-0.35,0-0.35-0.58-0.93-0.35
			c-0.47,0.58,0.23,0.58,0,1.51c-0.58-0.12-0.93,1.28-0.23,1.51c0-0.35-0.12-0.93,0.23-0.93c0.23,0.93-0.23,1.86-0.81,1.16
			c0.35,1.28-0.7,2.09-0.93,3.14c-0.11,0.35,0.12,0.81,0,1.16c-0.11,0.35-0.23,0.35-0.35,0.58c-0.12,1.16-0.12,1.74-0.24,2.56
			c-0.35,1.86-0.7,3.95-1.05,5.7c0.93,0.23,0.35-0.35,0.7-0.81c0.23-0.46,0.46-0.81,0.58-1.28c0.11-0.35,0-0.81,0-1.28
			c0.11-0.58,0.46-1.74,0.58-2.09c0.12,0,0-0.23,0-0.23c0.12-0.35,0.35-0.35,0.35-0.35c0.12-0.47-0.11-1.05,0-1.63
			c0-0.12,0.58-0.47,0.58-0.58c0.11-0.46-0.23-1.16,0.35-1.16c-0.12,2.79-1.16,5.35-1.51,8.02c-0.11,0.35,0.12,0.7,0,1.16
			c-0.11,0.58-0.81,1.28,0,1.86c0.23-0.81,1.05-0.47,1.51-0.7c0.11-0.11,0.35-0.46,0.58-0.58c0.47-0.35,1.16-0.46,1.63-0.58
			c0.23-0.12,0.35-0.47,0.58-0.58c0.46-0.35,1.28-0.35,1.74-0.58c0.12,0,0-0.35,0-0.35c0.12-0.11,0.58,0.12,0.58,0
			c0.23-0.11,0.35-0.46,0.58-0.58c0.93-0.47,1.75-1.05,2.21-1.28c0.23-0.23,0.46-0.46,0.58-0.7c0.7-0.23,1.28-0.23,1.86-0.58
			c0.35-0.23,0.46-0.81,0.93-1.16c0.35-0.12,0.7-0.12,0.93-0.24c0.23-0.23,0.23-0.46,0.58-0.7c0.58-0.23,1.05-0.23,1.51-0.23
			c0.23-1.16,1.16-1.74,1.86-2.21c0.23-0.11,0.46-0.46,0.7-0.58c0.35-0.23,0.81-0.11,1.16-0.35c0.23-0.12,0.35-0.7,0.58-0.81
			c0.35-0.35,0.81-0.12,1.16-0.35c0.58-0.35,0.93-1.16,1.28-1.63c1.75-1.74,4.3-2.91,5.58-5.12c0.7-0.23,1.28-0.81,1.75-1.28
			c0.35-0.23,1.86-1.86,1.86-1.86c0.11-0.35,0.46-1.05,0.58-1.16c0.46-0.47,1.16-0.47,1.28-0.93c0-0.46,1.05-1.4,1.16-1.51
			c0.12,0-0.11-0.23,0-0.23c0.12-0.12,0.58,0.11,0.7,0c0.11-0.12-0.12-0.58,0-0.7c0.11-0.11,0.58-0.23,0.58-0.35
			c0.11-0.12,0-0.47,0-0.58c0.11-0.12,0.58-0.23,0.58-0.35c0.47-0.35,0.58-1.4,1.51-1.4c-0.23-0.93,0.46-0.81,0.35-1.51
			c1.4,0,0.93-1.63,2.21-1.97c-0.11-1.98,1.16-2.79,1.75-4.19c0.7-0.23,1.28-0.35,1.51-0.93c-0.35,0-0.7-0.12-0.58-0.58
			c0.35-1.74,0.35-3.95,0.81-5.46c-0.81-0.47-0.93-1.75-1.4-2.56c-1.05-0.7-2.44-1.16-3.14-2.32c-1.28,0.46-1.4-0.93-1.74-1.05
			c-0.7-0.23-1.28,0-2.1-0.23c-0.35-1.28-2.32-0.81-2.79-1.86c-1.28,0.81-2.79-0.47-4.3-0.58c-0.35,0-1.16,0.23-1.51,0.35
			c-2.09,0.11-4.18-0.24-6.16,0c-0.35,0-0.46,0.23-0.93,0.23c-1.63,0.11-3.26,0.11-4.65,0.58c-0.23,1.05-0.35,2.21-0.58,3.37
			c-0.46,0-0.46,0.23-0.58,0.7c0,0.12-0.23,0.23-0.23,0.23c-0.35,1.28-0.58,2.21-0.93,3.37c0,0.23-0.23,0-0.35,0.35
			c0,0.47,0,0.58-0.35,0.93c-0.46,0.7-0.93,2.56-1.16,3.02c-0.23,0.11-0.23,0.35-0.7,0.35c0,0.58,0.12,1.16,0,1.75
			c0,0.11-0.46,0.46-0.58,0.58c-0.12,0.35,0.11,0.93-0.24,0.93c-0.11-0.23,0-0.58-0.35-0.58c-0.46,1.98-0.46,4.53-2.21,5.58
			c0.23,1.16-0.46,1.51-0.23,2.67c-0.35-0.11-0.23,0.46-0.35,0.58c-0.11,0.11-0.7-0.58-0.58,0.35c-0.81,0.23,0.24,1.05,0,1.51
			c-0.7,0-1.28,0.23-1.51,0.7c0.7-0.23,0,0.81-0.23,0.81c0-0.11-0.23-0.35-0.35,0c0.35,0.12,0.47,0.35,0.58,0.58
			C231.23,139.26,229.95,138.68,229.6,139.38z M230.65,142.4c-0.11,0.81-0.23,1.86-0.58,2.56c-0.7,0.7-0.7,3.02-1.4,4.18
			c0,0.24-0.35,0.35-0.23,0.7c-0.7-0.23-0.35-1.98,0-2.21c0.35-0.46,0.35-1.28,0.81-1.51c-0.58-1.16,0.7-3.14,1.4-3.95
			C231,142.17,230.76,142.4,230.65,142.4z"/>
	</g>
	<g>
		<path class="st0" d="M25.25,236.08c1.29,0.52,0-1.42,1.03-0.26c0.77,0-1.16-1.8,0.39-1.03c0.38-1.42-1.03-0.78-1.03-1.68
			c-0.13-1.93-0.13-3.61,1.03-4.38c-0.9-0.64,0-1.29,0-2.45c0.52-0.26,0.26-0.9,1.03-0.26c0.26-0.9,0.13-2.06,0.26-3.09
			c0,0,0.39,0,0.39-0.26c0,0-0.13-0.26,0-0.26c0-0.52,0-0.78,0.26-1.8c0-0.13,0.39,0,0.52-0.39c0,0-0.13-0.13,0-0.26
			c0-0.39,0-0.78,0.26-1.55c0-0.13,0.26-0.13,0.26-0.39c0-1.29,0.77-2.7,1.03-4.12c0.38-1.54,0.51-3.48,1.03-5.02
			c0.13-0.26,0.26-0.52,0.39-0.64c0.13-0.39,0.39-1.42,0.64-2.06c0-0.26-0.13-0.52,0-0.64c0-0.13,0.64-0.64,0.64-0.64
			c0.13-0.52,0-1.29,0-1.8c0,0,0.26,0,0.26-0.26v-0.26c0.13-0.39,0.38-0.39,0.38-0.39c0.13-0.52,0.13-0.9,0.26-1.41
			c0.38-0.52,0.64-1.03,1.16-1.68c0-0.13,0.26-0.26,0.26-0.26c0.39-0.52,0.39-1.29,0.64-2.06c0.13-0.39,0.64-1.03,1.16-1.29
			c0-0.77,0-1.41,0-2.19c0.64-0.64,1.03-2.06,1.68-3.22c-1.55-0.13-2.83,0.77-4.12,1.29c-0.9,0.39-1.93,0.52-2.96,1.16
			c-0.13,0,0,0.26-0.39,0.26c-0.26,0-0.52,0-0.77,0c-0.13,0-0.39,0.52-0.52,0.52c-0.13,0.13-0.52,0-0.77,0
			c-0.26,0.13-0.52,0.26-1.03,0.39c-0.26,0.26-0.52,0.39-0.9,0.39c-0.9,0.26-2.57,1.67-4.12,1.67c-0.65,0.39-1.16,1.03-1.55,1.42
			c-1.55-0.26-1.68,0.52-2.71,0.52c-0.64,0.26-0.64,0.77-1.16,0.77c0,0.39-1.03,0.13-1.03,0.64c-1.29,0-2.32,0-3.61,0
			c0-0.39-0.26-0.26-0.26,0c-0.77-0.26-0.77-0.52-0.39-0.9c-1.03-0.65-1.41,0.13-2.06-0.52c-0.26-0.9,0.52-0.9,0.64-1.55
			c-0.26-1.16,0.39-1.29,0.39-2.06c0.38-0.13,0.64-0.52,1.03-0.78c0,0,0.13-0.52,0.39-0.52c0.13,0,0.52,0,0.52,0
			c0.39-0.26,0.64-0.52,1.16-0.77c0.13,0,0.13-0.52,0.26-0.64c0.13,0,0.39,0.13,0.64,0c0.39-0.13,0.39-0.77,0.64-1.03
			c0.13,0,0.65,0.13,0.65,0c0.13,0,0.38-0.52,0.38-0.64c0.26,0,0.52,0.13,0.64,0c0.39-0.52,0.9-0.77,1.68-0.9
			c0.64-0.39,1.03-0.9,1.42-1.42c2.06-0.38,3.73-1.93,5.66-3.09c1.93-0.9,3.74-1.68,5.8-2.57c0.64-0.26,1.03-0.39,1.55-0.65
			c0.52-0.26,0.64-0.77,1.16-0.77c0.64,0,1.41-0.64,2.32-1.03c0.13,0,0.51,0,0.64,0c0.13-0.26,0.38-0.26,0.77-0.26
			c0,0,0.77-0.26,0.77-0.39c0.39-0.26,1.03-0.38,1.94-0.77c0,0,0-0.26,0.26-0.26c0.52,0,0.52-0.13,1.03-0.39
			c0.38,0,1.16,0,1.68-0.26c0.38-0.13,0.51-0.51,0.9-0.64c0.77-0.38,2.06-0.64,3.22-0.9c0.64-0.39,1.54-0.9,2.19-1.16
			c1.68-0.52,4.12-1.03,6.19-1.55c1.03-0.52,2.19-0.77,3.61-1.16c0.13,0,0.26-0.26,0.26-0.26c0.64-0.13,1.42,0.13,2.06,0
			c0.64-0.13,1.29-0.64,1.8-0.77c0.26,0,0.9,0.13,1.29,0c0.26,0,0.26-0.26,0.64-0.39c0.52,0,0.9,0.13,1.29,0
			c0.52,0,1.29-0.13,2.45-0.26c0.77,0,0.9-0.38,1.41-0.38c0.39,0,0.52,0.38,0.9,0.38c0.9,0,1.8-0.38,2.7-0.38
			c2.45-0.13,4.64,0.38,6.7,1.03c1.29,0.38,2.71,1.03,3.35,1.67c0.64,0.78,0.77,1.55,1.03,2.45c0-0.13,0.64,0.13,0.39,0.26
			c-0.52,0.52,0,0.13,0,0.52c0.13,0.38-0.26,1.16,0.38,1.16c-0.64,0.64-0.26,1.8-1.16,2.06c-0.26,0.26,0.26,1.03-0.26,1.68
			c-0.64,0-0.9,0.26-1.03,0.77c-1.55-0.51-2.71-0.51-5.02-0.77c0,0,0-0.39-0.39-0.39c-0.26,0-0.39,0.39-0.39,0.39
			c-0.26,0-0.52-0.64-1.54-0.39c-0.13,0.13-0.52,0.39-0.39,0.39c-0.52,0-0.64-0.39-1.03-0.39c-0.52,0.13-0.64,0.39-1.29,0.39
			c-1.8,0.26-4.25,0.13-5.54,1.42c-0.78,0.13-0.78-0.52-1.55-0.39c-3.87,2.19-10.31,1.8-14.17,4.12c-0.64,0-1.29,0-1.93,0
			c-1.03,0-1.68,0.52-2.19,1.29c-1.55-0.39-2.06,0.39-3.22,0.64c0,1.29,1.16,1.29,1.03,2.71c-0.13,1.16-0.52,2.06-0.77,3.22
			c0,0.13,0.13,0.78,0,0.78c-0.64,0.51-0.64,1.8-1.03,3.09c0,0.13,0,0.52,0,0.52c-0.39,0.52-1.03,2.96-1.16,4.12
			c-0.26,0.77-0.26,1.41-0.52,2.06c-0.13,0.64-0.13,1.55-0.26,2.06c-0.13,0-0.39,0-0.39,0.26c0,0.26-0.26,0.26-0.64,0.26
			c0.64,2.06-0.52,4.25-0.9,6.44c-0.13,0.26,0,0.52,0,0.65c-0.13,0.38-0.52,0.38-0.52,0.38c-0.26,1.29-0.13,2.71-0.64,3.74
			c0,0.13-0.13,0-0.26,0.38c-0.13,0.52-0.13,1.68-0.52,2.58c0,0-0.26,0.26-0.26,0.38c-0.26,1.03-0.26,2.19-0.52,3.74
			c-0.26,1.29-0.77,2.57-1.03,3.99c-0.26,1.29-0.38,2.71-0.64,3.99c-0.52,1.8-1.03,3.48-1.41,5.03c0,0.26,0,0.52,0,0.77
			c0,0.13-0.39,0.26-0.39,0.26c-0.26,1.55,0,2.45-0.26,3.99c-0.13,0.26-0.52,1.8-0.64,2.45c-0.13,0.39,0.13,0.9,0,1.42
			c-0.13,0.26-0.78,1.68-0.78,2.7c-0.13,2.06,0.52,4.51,0,6.06c-0.13,0.26-0.64,1.93-1.68,1.93c-0.38,0-0.64,0.64-1.67,0.26
			c0,0.26-1.03-0.26-1.03-0.26v-0.26c-0.39-0.26-1.03-0.51-1.29-0.64c-0.13-0.26,0-0.64,0-0.77c-0.52-0.26-1.55-0.9-2.06-1.29
			c-0.64-0.64-1.29-1.55-1.29-2.45c-0.9-0.13,0.26,1.93-1.16,1.29c-0.9-1.55-0.9-3.35-0.52-5.15c0-0.38,0-0.64,0-0.77
			c0,0,0.26-1.03,0.26-1.16c0.26-0.26,0.13-0.39,0-1.55c0-1.8,0.51-3.61,0.64-5.54c0.13-0.39,0.9,0,0.77,0
			c0.26,0,0.26-0.52,0.64-0.52c-0.26-0.52-0.52,0.13-1.03,0c0-1.68,1.03,0,1.42-1.41c-0.39-0.39-0.64-0.78-1.03-1.03
			C25.12,235.82,25.25,235.95,25.25,236.08z"/>
		<path class="st0" d="M70.61,188.67c-0.39,0.64-1.16,1.29,0,0.64c-0.26-0.64,1.03-0.38,1.03-0.9c0.64,0,1.03-0.39,1.03-1.03
			c0.9,0.13,0.77-0.77,1.29-0.77c0.26-0.39,0.9,0,1.16-0.52c0-0.39,0.9-0.77,1.29-1.16c0.26-0.13,0.64-0.64,0.9-0.9
			c0.13-0.13,0.77,0,0.77,0c0.52-0.51,0.78-0.64,2.06-1.03c0.52-0.39,1.54-0.52,2.7-0.78c1.29-0.26,3.35-0.13,5.41-0.64
			c0.78,0.64,1.94,0.64,3.09,1.42c0.26,0.38,0.64,0.38,1.03,0.64c0.13,0.38,0.52,0.38,0.9,0.77l0.39,0.39c0.38,0.13,0.9,0,1.29,0.13
			c0.13,0.26,0.13,0.77,0.39,0.77c0.26,0.13,0.9,0.13,1.15,0.78c0.26,0.13,0.26,0.26,0.39,0.52c0.26,0.13,0.26,0.13,0.39,0.38
			c0.26,0.13,0.52,0.52,0.52,0.64c0.38,0.26,0.77,1.94,0.9,2.32c0.13,0.52,0.9,2.19,1.03,3.09c0.64,5.28-0.52,11.21-1.93,15.59
			c0,0.64,0,0.9-0.13,1.41c-0.38,1.03-0.9,2.58-1.41,3.99c0,0-0.26,0-0.26,0.39v0.13c-0.13,0.39-0.39,1.29-0.64,1.93
			c0,0-0.39-0.13-0.39,0.26c0,0.26-0.39,1.41-0.77,1.93c0,0.26-0.13,0-0.13,0.39c0,0.13-0.38,0.52-0.38,0.77
			c-0.39,0.52-0.52,1.29-1.16,1.93c-0.13,0.39-0.9,1.42-1.68,1.8c0.13,0.9-0.26,1.42-0.64,2.32c-0.13,0-0.26,0.78-0.26,0.9
			c-0.38,0.26-1.16,0.38-1.16,0.9c0,0.78-0.77,1.16-1.29,2.06c-0.13,0.13-0.9,0.64-0.9,1.16c-0.13,0.64-0.9,0.77-1.03,0.9
			c-0.26,0.26,0,0.64-0.39,0.39c-0.38,0.39-0.38,1.29-0.38,2.06c-1.03,0.52-1.81,1.55-2.71,2.83c-0.13,0.13-0.39-0.13-0.39,0.13
			c0,0.78-0.64,0.78-1.16,1.16c-0.38,0.13-0.64,0.52-0.77,0.78c-0.9,0.52-1.68,0.9-2.71,1.8c-0.51,0.52-0.64,1.03-1.03,1.54
			c-0.39,0.13-0.9,0-1.29,0.39c-0.26,0-0.51,0.52-0.77,0.52c-0.13,0.13-0.52,0.13-0.9,0.39c-0.13,0.13-0.52,0.52-0.78,0.77
			c-0.52,0.13-1.54-0.26-2.45,0c0,0,0,0.13-0.13,0.13c-0.39,0.13-0.77,0.39-1.16,0.39c-0.52,0.13-1.29,0-1.93,0
			c0.13,0-0.26-0.52-0.39-0.39c-0.39,0.52-1.41,0-2.71-0.13c-0.51-0.26-1.8-0.39-2.06-0.39c-0.13-0.26,0-0.38-0.26-0.38
			c-0.39,0-0.9-0.52-1.29-0.9c-0.52-0.52-1.16-0.9-1.54-1.55c-0.78,0.13-1.29-0.38-2.06-0.64c-0.13-0.13-0.77-0.64-1.29-0.64
			c-0.13,0-1.68-1.29-1.93-1.68c-0.64-0.77-0.64-2.19-1.8-2.31c0.52-1.29-0.39-1.81-0.52-2.71c-0.39-0.77-0.39-1.55-0.78-2.06
			c-0.38-0.64,0-0.51,0-1.03c0-0.39-0.9-1.8,0.39-2.58c-0.39-0.52-0.52-1.41-0.77-2.19c0.52-1.55,0.9-3.48,1.29-5.41
			c0.13-0.9,0.64-1.8,0.9-2.7c0.13-1.03,0.51-2.32,0.64-2.96c0.26-1.16,0.9-1.55,1.68-2.45c-0.13-0.64-0.9,0.64-0.78-1.03
			c0.78-0.9,0.9-2.32,1.29-3.48c0.52-1.03,0.9-2.19,1.55-3.22c0.9-2.19,2.19-3.99,2.96-6.18c0.26-0.13,0.77-0.26,1.16-0.52
			c0.13-0.39,0-0.77,0.13-1.03c0.13-0.26,0.52,0.13,0.78,0c0,0,0-0.26,0-0.38c0.13-0.52,0.13-0.9,0.64-1.42
			c0.77-1.16,2.06-2.06,2.19-3.22c2.32-0.78,3.22-2.96,6.19-2.96C70.22,188.81,70.35,188.67,70.61,188.67z M84.26,193.83
			c-1.55,0.64-2.32,2.32-4.9,2.32c-0.26,0.9-0.77,1.93-1.29,2.57c-1.41,0-1.54,1.29-2.83,1.68c-0.52,1.29-1.67,2.32-2.83,2.83
			c-0.39,1.68-0.78,3.48-1.68,4.12c-1.8,1.41-3.09,0.52-5.28,0c-0.13,1.41-0.52,2.57-0.52,3.22c0,0.38-0.39,0.26-0.39,0.38
			c-0.77,1.8-1.29,3.35-1.29,4.77c-0.39,0.78-0.64,1.68-0.9,2.45c-0.65,2.71-1.16,6.06-1.29,8.63c0,0.64-0.26,1.03-0.26,1.42
			c-0.26,0.38,0.26,0.26,0.26,0.38c0.13,0.13-0.26,0.13-0.26,0.13c-0.26,0.78,0,1.55,0,2.45c0,0.51,0.39,0.64,0.26,1.29H60.3
			c-0.13,0.26,0.52,0.64,0.52,0.64c-0.26,1.03,0.9,1.54,1.03,2.19c0.38,0.13,0,0.64,0.52,0.9c0.9,1.03,3.09,0.52,4.89-0.39
			c0,0,0.26-0.51,0.38-0.51c0.52-0.65,0.65,0,1.03-0.65c0-0.13,0.78,0,1.03,0v-0.38c0-0.13,0.52,0,0.52,0
			c0.26-0.13,0.26-1.03,0.52-1.16c0.38-0.26,1.16,0,1.68-0.26c1.16-2.57,3.73-3.73,5.66-5.79c0.52-0.78,1.03-1.94,1.29-2.45
			c1.03-0.9,1.8-1.03,1.8-2.19c0.26-0.52,0.39,0,0.39-0.26c0.64-0.9,1.16-1.93,1.68-2.7c0-0.26,0.39-0.26,0.39-0.39
			c0.38-0.39,0.38-0.39,0.64-0.9c0.26,0,0-0.64,0-0.64c0.26-0.38,0.26-0.64,0.64-0.9c1.68-1.8,3.22-5.67,4.38-8.24
			c0.39-1.03,1.16-2.19,1.16-2.71c0-0.26,0.39-0.26,0.39-0.26c0.38-1.29,0.26-2.06,0.38-2.32c0.39-0.64,0-0.64,0-1.29
			c0-0.39,0.52-0.52,0.9-0.64c0,0,0-1.16,0-1.42c0-0.13,0.13-0.26,0.13-0.26c0.39-1.03,0-2.32,0-3.35c0.52-1.41,1.42-1.68,0.52-2.32
			c-0.13-0.26,0.26-2.32,0-2.45c0,0-0.64-0.13-0.64-0.39c-0.64-0.52,0-1.54-0.9-1.41c-1.15,1.29-3.47,1.68-5.54,2.45
			C85.16,192.54,85.16,193.57,84.26,193.83z"/>
		<path class="st0" d="M101.67,220.62c1.41,0,0.77-1.94,1.41-2.45c-0.38-0.38,0-0.64,0-1.03c-0.64,0-0.64-0.26-0.64-0.64
			c0.78,0.64,0.78-0.26,0.26-0.78c0.52-1.29,0.77-2.57,1.16-4.12c0.26,0.39,0.51,0.9,1.16,1.29c0.26-0.77-0.13-0.9-0.52-0.9
			c-0.13-0.52,0.26-0.52,0.26-0.9c0-0.77-0.64-0.51-0.64-1.41c0.64,0.13,0-1.16,0.39-1.29c0.77-0.64,0.52-3.87,1.8-4.38
			c-0.13-0.64,0-1.03,0-1.41c0,0,0.77-0.26,0.38-0.39c-0.38-0.13,0-0.13,0.39-0.13c-0.9-1.16,0-2.06,0.39-3.22
			c0.13-0.64,0.13-1.16,0.38-1.68c0-0.13-0.26-0.52,0-0.78c0.13-0.13,0.26-0.13,0.52-0.51c0.39-0.9,0.52-1.29,1.16-2.06
			c0.39-0.52,0.64-0.9,1.29-1.29c0.52-0.64,1.68-1.55,3.35-1.16c0.39,0.77,1.03,1.16,1.03,2.19c0,0.9-0.52,1.03-1.29,1.03
			c-0.64,2.45-1.55,4.51-1.94,7.47c0.39,0.9,0.52-0.9,0.9-1.16c0.13,0,0.52,0.26,0.64,0c0.26-0.13,0-0.64,0.39-0.9
			c0-0.13,0.64-0.13,0.64-0.39c0.13-0.52,0.13-0.77,0.26-1.16c0.26-0.26,0.39,0.13,0.39-0.26c0-0.26,0.52-0.65,0.52-1.03
			c0.52-0.52,1.03-1.42,2.06-1.68c-0.26-0.9,0.64-1.68,1.16-2.32c0.39-0.64,1.16-1.03,1.68-1.8c0-0.13-0.13-0.52,0-0.77
			c1.29-0.9,2.83-2.45,4.51-3.74c0.38-0.38,0.52-1.03,0.9-1.29c0.52-0.26,1.42-0.26,2.06-0.52c0.13-0.13,0.26-0.52,0.64-0.77
			c0.26-0.13,0.77,0,0.77-0.26c1.03,0.65,2.06,0,3.09,0.26c0,0,0,0.39,0.26,0.39c0.77,0,1.16,1.8,1.8,2.32c0.26,0.26,0.77,0,0.77,0
			c0,0.26,0,0.38,0,0.38c0.26,0.13,0.26,0.9,0.52,1.16c0.13,0.13,0.13,0.13,0.39,0.52c0,0.52,0.13,1.03,0.38,2.32
			c0,0.39-0.26,0.77,0,1.16c0,0.64,0.26,1.93,0,2.57c0.13,0.64,0.26,0,0.52-0.26c0.9-1.03,2.19-2.71,3.22-4.25
			c0.64-0.26,0.9-0.64,1.54-1.16c0.26-0.64,0.78-1.16,1.29-1.68c1.93-2.32,4.63-4.64,7.08-7.08c0.51-0.52,0.9-1.03,1.41-1.8
			c0.26-0.13,0.77-0.13,0.9-0.26c0.26-0.26,0.26-0.77,0.38-1.16c0,0,0.64,0.26,0.64,0c0.13-0.13,0.13-0.38,0.26-0.52
			c0.38-0.38,0.38-0.38,0.77-0.77c0.13,0,0.52,0.26,0.77,0c0.13-0.13,0.13-0.9,0.64-1.29c0.13-0.13,0.52,0.26,0.78,0
			c0.9-1.03,2.19-2.96,4.89-2.45c0.13,0.52,0.77,0.52,1.16,0.9c0.26,0.13,0,0.64,0.26,0.9c0.13,0.13,0.65,0.38,0.65,0.38
			c0,0.13-0.13,0.52,0,0.65c0.26,0.26,0.51,0.26,0.77,0.51c0.13,1.55-0.26,3.35-0.77,5.28c0,0-0.13,0-0.39,0.39
			c-0.13,0.52-0.13,1.68-0.52,2.57c-0.13,0.13-0.77,0.52-0.77,0.65c-0.26,0.64-0.26,0.9-0.39,1.8c-0.77,2.57-1.68,5.66-2.57,8.37
			c-0.13,0.13,0,0.64,0,0.64c-0.13,0-0.39,0-0.39,0c-0.13,0.26,0,0.52,0,0.77c0,0-0.39-0.26-0.39,0v0.52
			c-0.38,0.39-0.38,1.29-0.64,2.32c0,0-0.26,0.26-0.38,0.52c-0.26,1.29-0.78,2.71-1.29,4.38c0,0,0.13,0.52,0,0.52
			c-0.51,0.39-1.03,2.96-1.41,4.12c-0.13,0.78-0.52,1.29-0.77,2.06c-0.13,1.16-0.13,1.8-0.52,3.09c0,0.13-0.39,0.13-0.39,0.26
			c-0.13,0.65-0.13,1.03-0.38,1.68c0,0.26,0,0.78,0,0.78c-0.26,0.13-0.26,1.29-0.65,2.32c0,0-0.26,0-0.26,0.26
			c-0.13,0.39,0,1.29,0,1.55c-0.9,0.51-1.16,4.89-1.8,6.31c-0.13,0.78-0.52,1.03-0.52,1.68c-0.13,0.26,0.13,1.8,0,1.93
			c-0.64,0.39-0.13,0.78-0.52,1.42c-0.13,0.38-0.13,1.16-0.38,2.19v0.51c-0.26,0.39-0.13,0.78-0.26,1.55c0,0.13-0.26,0.13-0.39,0.52
			c0,0.9,0.13,1.8,0,2.83c0,1.03-0.38,3.48-0.26,5.28c0,0.52,0.77,2.7,0.64,3.73c0,0-0.64,0.26-0.39,0.39
			c0.52,0.38,0.13,0.38,0,0.52c0,0.26,0.13,0.77,0,0.77c-0.26,0.13-0.77,0.9-1.29,0.9c-1.68,0.39-2.06-1.29-3.35-1.8
			c-0.13-0.26-0.26-0.52-0.65-0.77c-0.38-0.13-0.51-0.52-0.64-0.64c-0.38-0.26-0.9,0-1.16-0.39c-0.13-0.26,0.26-0.77-0.38-0.64
			c0-0.64-0.52-1.93,0-2.45c0-0.77-0.52-1.29-0.9-1.93c0-0.26,0-0.39,0-0.78c0-0.13-0.52-0.51-0.64-1.29c0-0.13-0.39-4.12,0-4.25
			c0.52-0.64-0.26-1.68,0-3.09c0,0,0-0.78,0-0.9c0.26-0.26,0-1.16,0-2.19c0.13-1.16,0.52-2.19,0.64-3.22
			c0.26-1.68,0.26-3.48,0.78-4.51c0-0.26,0.13,0,0.13-0.38c0.26-0.26,0-0.39,0-0.78c0.38-0.51,0.77-1.29,0.77-2.06
			c0.13-0.77-0.13-1.68,0-2.19c0.13-0.9,0.39-1.68,0.77-2.83c0,0,0.13-0.9,0.26-0.9h0.38c0.39-1.03,0-2.32,0.39-3.22
			c0,0,0.26,0,0.26-0.26c0-0.26,0.64-1.29,1.03-1.68c-0.26-1.29,0.26-2.32,0.26-3.48c0.38-0.13,0.38-0.64,1.16-0.52
			c-0.39-3.09,1.8-3.73,1.68-6.82c1.03-1.16,1.16-3.09,2.06-4.64c-0.13-0.64-0.64,0-0.9,0.13c-0.13,0.52-0.26,0.64-0.65,0.9
			c-0.38,0.26-0.9,0.9-1.29,1.29c-0.26,0.26,0,0.9-0.38,1.41c0,0.13-0.39,0.39-0.52,0.52c-0.39,0.52-1.16,0.9-1.42,1.42
			c0,0.26-0.26,0.38-0.26,0.64c-0.13,0.13-0.39,0.26-0.39,0.26c-0.13,0.26-0.13,0.9-0.38,1.16c-0.26,0.52-1.03,0.9-1.29,1.41
			c-0.26,0.13-0.26,0.39-0.38,0.52c-0.26,0.13-0.39,0.39-0.39,0.39c-0.13,0.39-0.13,0.77-0.39,1.03c-0.13,0.26-0.51,0.38-0.51,0.64
			c-0.39,0.52-0.52,1.03-1.16,1.54c-0.13,0.52-0.52,0.78-0.65,0.9c-0.26,0.39,0,0.52-0.26,1.03c-0.13,0.26-0.52,0.38-0.64,0.64
			c0,0.13,0.13,0.52,0,0.64c-0.39,0.39-0.64,0.26-0.77,0.9c0,0.39-0.39,0.9-0.52,1.55c-0.26,0.13-0.64,0.39-0.9,0.52
			c-0.13,0.52,0,1.03-0.38,1.55c0,0.26-0.52,0.38-0.52,0.51c-0.39,0.78-0.39,1.55-0.78,2.06c0,0.13-0.51,0.13-0.64,0.39
			c0,0.13,0.13,0.51,0,0.64c0,0.26-0.52,0.38-0.52,0.64c-0.38,0.64-0.38,1.41-0.77,2.06c-0.26,0.39-0.26,0.78-0.39,1.16
			c0,0.13-0.51,0.39-0.51,0.52c-0.39,0.39-0.26,0.77-0.39,1.03c-0.13,0.26-0.77,0.64-0.77,0.64c-0.13,0.52,0,1.29-0.26,1.93
			c0,0.26-0.39,0-0.52,0.39c0,1.41-0.77,2.71-1.68,3.73c-2.19,0.9-4.89,0-5.41-1.93c-0.9,0.13-0.9-0.9-1.68-0.9c0-0.77,0-1.29,0-1.8
			c-0.13-0.52-0.64-0.77-1.29-0.77c0.26-1.29-0.13-1.93-1.03-2.32c0.13-0.39,0.52-0.77,1.03-0.52c0-0.64,0-1.16,0.39-1.16
			c-0.13-1.54,0.52-2.06,0.26-3.73c-0.26-1.03,1.03-0.39,1.03-1.29c0.26-0.78-0.77-0.52-0.77-1.03c0.38-1.68,1.16-3.48,0.77-4.77
			c0.39-0.39,0.52-1.03,0.77-1.29c0-0.13,0.13,0,0.13-0.26c0.26-0.64,0.38-0.64,0.38-1.16c0.13-0.52-0.13-0.13-0.38-0.52
			c0-0.13,0.77-0.64,0.38-1.29c-0.38-0.52-1.03,0.78-1.68,1.29c-0.38,0.9-0.9,1.8-0.9,2.58c-1.03,0.52-1.42,1.8-1.93,2.7
			c-0.64,0.78-1.16,1.94-1.8,2.71c-0.52,0.9-1.29,1.8-1.68,2.71c-0.39,0.51-0.52,1.03-0.64,1.67l-0.39,1.29h-0.39
			c-0.77,1.93-1.41,3.48-2.19,5.28c-0.13,0.26,0,0.77,0,0.77c-0.39,0.13-0.78,1.03-1.16,1.8c-0.26,0.52-0.26,1.29-0.39,1.55
			c0,0.26-0.64,0.64-0.64,0.77c-0.13,0.52-0.13,1.8-0.26,2.57c-0.26,0.13-0.38,0-0.38,0.52c0,0.39-0.39,0.64-0.78,0.64
			c0,2.06-0.64,3.87-1.29,5.67c-0.13,1.03-0.38,2.19-0.64,3.09c0,0.52-0.39,1.42-0.64,1.93c-0.26,0.9-0.64,3.87-1.03,5.41
			c0,0.26-0.13,0.26-0.38,0.38c0,1.16-0.26,0.78-0.64,1.29c-0.26,0.13,0,0.78,0,0.78c-0.26,0.13-0.78,1.03-1.16,1.41
			c-1.03-0.26-1.29,0.52-2.19,0.26c-0.64-0.64,0-0.26,0.26-0.9c0-0.52-0.52-1.03-0.52-0.52c-0.64-0.13-0.38-0.9-0.38-1.16
			c-0.78-0.26-1.16,0-1.16,0.52c-0.64-0.26-0.39-1.16-0.52-2.06c-0.13-0.39-0.9-1.03-0.9-1.55c0,0.13,0.39-0.64,0.39-0.64
			c0-0.52,0-2.32,0-3.22c0-0.9,0.64-1.93-0.39-2.32c0.39-0.38,0.78,0.13,1.42-0.13c-0.13-1.29,0-2.96,0.38-4.25
			c0-0.52-0.9-0.26-0.51-1.16c-0.39-1.16,0.38-1.03,0.13-1.93c0-0.52,0.64-0.52,1.16-0.52c0-0.9,0.13-0.9,0.38-1.8
			c0-0.26,0.13-0.26,0.26-0.26c0-0.38-0.13-0.9,0-1.29c0-0.38,0.64-0.38,0.64-0.77c0.26-1.03,0-2.19,0.26-3.22
			c0,0,0.65-0.26,0.39-0.51c-0.39-0.39-0.13-0.26,0-0.39c0.26-0.9,0.26-1.68,0.77-2.32c0-0.9,1.29-0.9,1.29-2.06
			c-0.26-0.13-0.39-0.51-0.78-0.51C101.28,220.23,101.67,220.36,101.67,220.62z M98.96,226.42c0,0.39,0,0.9,0,1.29
			c-0.26,0-0.38,0-0.52,0c0-0.39,0-0.9,0-1.29C98.58,226.42,98.7,226.42,98.96,226.42z M99.6,225.13c-0.26,0-0.64,0-0.9,0
			c0-0.38,0-0.52,0-0.9C99.48,224.1,99.6,224.48,99.6,225.13z M104.76,213.54c0.13,0.38-0.64,1.29,0,0.51
			C105.66,214.44,104.89,212.12,104.76,213.54z"/>
		<path class="st0" d="M205.51,175.54c-0.13,0.64-0.26,1.55-0.39,2.06c0,0.13-0.39,0-0.39,0.38c0,0.52-0.77,0.64-0.77,1.29
			c0,0.13,0,0.26,0,0.39c0,0.13-0.26,0.13-0.26,0.26c-0.78,2.19-1.03,4.38-1.68,6.83c0,0.13-0.39,0-0.39,0.39
			c0,1.03-0.26,1.16-0.9,1.93c0.13,1.68-0.65,3.09-1.03,4.51c-0.26,0.77-0.39,1.68-0.77,3.09c0,0-0.39,0-0.39,0.26
			c0,0.13,0,0.26,0,0.39c-0.13,0.26,0,0.77-0.26,1.68c0,0.13-0.38,0-0.38,0.26c0,0.13-0.26,0.52-0.26,0.64
			c-0.26,0.64-0.64,1.29-0.64,2.19c0,0.13,0,0.52,0,0.64c-0.13,0.13-0.77,0.52-0.77,0.64c0,0.26,0.26,1.42,0,1.68
			c-0.39,0.26-0.64,2.19-0.9,3.35c0,0.13-0.38,0-0.38,0.38c0,0.78-0.13,0.9-0.26,1.68c0,0.13,0,0.64,0,0.78
			c-0.52,0.26,0,1.03-0.52,1.29h-0.26c-0.52,1.54-0.77,2.83-1.03,4.77c-0.13,1.03-0.77,1.93-1.03,2.96c0,0.26,0.13,1.29,0,1.41
			c-0.51,0.52-0.38,2.06-0.64,3.35c0,0-0.26,0-0.26,0.26c0,0.39,0,1.16,0,1.55c0,0-0.39,0-0.39,0.26c0,0.13,0,0.26,0,0.38
			c-0.13,0.52-0.38,1.93-0.64,3.22c-0.13,0.64-0.77,0.64-0.77,1.16c-0.26,0.9-0.26,2.19-0.39,3.35c-0.13,0.78-0.13,0.9-0.26,1.42
			c-0.39,1.03-0.39,2.19-0.39,3.99c0,0.52-0.39,0.65-0.39,1.03c0,0.39,0.39,0.52,0.39,1.03c0,0-0.39,0.13-0.39,0.39
			c0,0.9,0,0.77-0.64,1.29c0,0.77,0,1.41,0,2.45c0,0-0.26,0.13-0.26,0.26c0,0.52,0.39,0.65,0.26,1.03c0,0.52-0.64,1.03-0.64,1.68
			c0,0.52,0.26,1.03,0.39,1.8c0.13,1.42-0.39,3.48,0.26,4.25c0.26,0.39,0.39,1.03,0.64,1.8c0.13,0.13,0.65,0.13,0.78,0.26
			c0,0.13,0.26,1.03,0.26,1.03c-0.13,0.13-0.26,0.26-0.26,0.64c-0.39,0-0.39,0.38-0.39,0.64c-0.39,0-0.64,0-1.03,0
			c-0.13-0.52-0.52,0-0.64,0.38c0.13,0.9,0.52-0.51,1.29,0c-0.64,0.52-0.77,1.42-1.93,1.42c-0.26,1.03,0.39,1.16,0.39,1.93
			c-1.16,0.26-0.64-1.41-1.03-1.93c0-0.9-1.41-0.52-1.41-1.42c-0.52-0.51-0.39-0.9-0.64-1.41c-0.26-0.26-0.9-0.26-1.03-0.64
			c-0.26-0.26-0.13-0.9-0.39-1.29c-0.13-0.26-0.9-0.39-0.9-0.64c-0.13-0.13,0.26-0.39,0.26-0.78c0-0.26-0.26-0.64-0.26-1.03
			c-0.13-0.26-0.26-0.78-0.39-1.29c-0.13-0.38-0.26-0.51-0.26-1.03c-0.13-0.13-0.39-0.26-0.39-0.26c-0.13-0.52,0.39-0.64,0.39-1.03
			c0-0.26-0.39-0.77-0.39-1.16c-0.13-0.64-0.52-1.41-0.52-1.93c0-1.16,0.9-2.45-0.26-3.48c1.16-1.41,0.77-3.22,1.16-5.41
			c0,0,0.26-0.13,0.26-0.26c0.13-0.39-0.13-0.9,0-1.29c0-0.26,0.39-0.38,0.39-0.38c0-0.13-0.39-0.52-0.39-1.03
			c0,0.13,0.39-0.13,0.39-0.26c0-0.39,0-0.64,0-0.78c0-0.38,0.26-0.26,0.26-0.38c0-0.39-0.64-0.78,0-1.29
			c-1.16,0.13-2.06-0.13-3.09,0c-0.9,0.13-1.8,0.9-3.22,0.65c-0.9-0.13-0.51,0-1.8,0c-1.93,0.13-4.38,0.51-6.7,0.64
			c-1.03,0.13-0.77,1.8-1.03,2.45c-0.9,0-0.13-1.16-0.38-1.8c-0.52-0.64-0.9,0.64-1.03,0.77c-0.9,0.9-2.19,2.57-3.99,2.32
			c-0.77,0-0.77-0.39-1.16-0.64c-0.64-0.39-1.55-0.9-2.32-1.68c-2.32-0.26-3.09,0.9-5.02,0.64c-0.65,0.13-0.9,0.77-1.29,1.03
			c-1.03,0-1.67,0-2.45,0c-0.77-1.29,0-2.45,0-4.12c0.9-0.64,2.19-1.03,3.35-1.55c0.26-0.13,0.52-0.64,0.64-0.77
			c0.13,0,0.64,0.13,0.77,0c0.26-0.39,0.64,0,1.29-0.26c0.13,0,0.13-0.78,0.26-0.78c0.9-0.26,1.8-0.26,2.45-0.38
			c0.77-0.13,1.29-0.26,2.06-0.65c1.29-1.03,1.8-2.45,2.7-3.73c0.39-0.52,0.77-1.55,1.29-2.32c0.26-0.13,0.52-0.52,0.78-0.64
			c0.13-0.26,0.13-0.77,0.26-1.03c0.39-0.38,1.16-0.64,1.42-1.03c0.64-1.03,0.9-2.32,2.06-2.71c0-0.9,0.52-1.41,0.64-2.45
			c1.42-1.16,1.8-3.35,3.73-4.25c0.39-1.94,2.06-3.09,2.97-4.77c0.13-0.26,0.13-0.9,0.51-1.16c0.13-0.26,0.78-0.39,0.9-0.65
			c0.26-0.26,0.13-0.64,0.39-1.03c0-0.13,0.64-0.13,0.64-0.26c0.13-0.52,0.26-0.77,0.64-1.29c0-0.13,0.26-0.64,0.38-0.64
			c0.13-0.13,0.52,0,0.64,0c0.13-0.26,0.13-0.9,0.26-1.16c0.52-0.52,1.03-1.16,1.55-1.68c0-0.13,0.26-0.64,0.26-0.64
			c0.13,0,1.68-0.39,0.64-0.64c-0.26-0.13-0.26,0.13-0.26,0.26c-0.52-0.13,0-0.51,0.26-0.64c0.26-0.26,0.26-0.38,0.39-0.64
			c0-0.13-0.13-0.77,0-0.77c0.26-0.26,0.9-0.39,0.9-1.03v-0.26c0.26-0.52,0.78-0.64,1.03-1.03c0.13-0.13-0.13-0.64,0-0.64
			c0.26-0.26,1.03-0.39,1.03-1.03c0-0.52,0.77-0.64,0.77-1.41c0-0.52,0.52-0.39,0.64-0.64c0.52-0.78,0.64-1.68,1.68-1.94
			c0.13-0.38,0-1.16,0.26-1.41h0.39c0-0.13-0.13-0.64,0-0.77h0.39c0-0.13-0.13-0.64,0-0.64c0.26-0.26,0.9-0.39,0.9-1.03
			c0-0.39,0.64-0.39,0.78-0.64c0.26-0.39,0.13-0.9,0.38-1.29c0.13-0.13,0.52-0.13,0.64-0.26c0.52-0.9,0.78-1.8,1.29-2.83
			c0.13-0.13,0.38,0,0.38-0.38c0-0.9,0.9-0.78,1.03-1.55c0-0.13,0-0.39,0-0.39c0.13-0.26,0.9-0.77,1.03-1.16
			c0.13-0.13-0.13-0.52,0-0.64h0.38c0-0.13-0.13-0.64,0-0.64c0.26-0.26,0.39-0.26,0.64-0.64c0-0.13,0.13-0.9,0.26-1.03h0.39
			c0-0.13-0.13-0.52,0-0.64c0.26-0.26,1.03-0.38,1.03-1.03c0-0.9,0.78-1.94,1.29-2.71c0.77,0,1.29-0.26,1.41-0.64
			c0.9,0,1.68-0.13,2.06,0.38c0.9,0.13,0.64-1.03,1.94-0.77c0.38,0.52,1.03,0.64,1.41,1.03c0.13,0.13,0.26,1.03,0.64,1.29
			c0,1.29-0.64,1.42-0.9,3.09C205.38,173.35,205.64,174.38,205.51,175.54z M189.92,199.24c-0.13-0.26,0-0.64-0.52-0.64
			c-0.26,1.29-1.29,2.45-1.93,3.48c-0.13,0.26-0.13,0.64-0.39,0.9c-0.13,0.26-0.52,0.52-0.64,0.64c-0.13,0.38-0.13,0.77-0.26,1.03
			c-0.13,0.13-0.26,0.13-0.39,0.39c-0.52,0.9-0.77,1.68-1.41,2.45c-0.13,0.13-0.52,0.39-0.64,0.64c-0.13,0.13,0,0.52,0,0.64
			c-0.13,0.13-0.64,0.13-0.64,0.26c-0.78,1.16-1.29,2.71-2.06,3.86c-0.26,0.39-0.9,0.78-1.29,1.29c-0.13,0.26-0.13,0.64-0.52,1.03
			c-0.13,0.13-0.39,0.39-0.64,0.78c-0.13,0.26-0.13,0.64-0.26,0.9c-0.13,0.26-0.51,0.52-0.64,0.64c-0.51,0.78-0.51,1.03-1.03,1.42
			c-0.13,0,0,0.52,0,0.64c-0.39,0.52-1.03,0.77-1.29,1.41c-0.26,0.39-0.26,0.78-0.38,1.03c-0.13,0.13-0.64,0.13-0.77,0.26
			c-0.13,0.13,0,0.52,0,0.65c-0.13,0.26-0.52,0.51-0.65,0.77c-0.13,0.13-0.64,0.38-0.64,0.64c-0.13,0.26,0.13,0.9,0,1.29
			c0,0-0.64-0.13-0.64,0c-0.26,0.13,0.13,0.9,0,1.16c1.55-0.26,3.48-0.26,5.03-0.39c1.68-0.13,3.22-0.26,4.77-0.38
			c0.26-1.55,0.39-3.09,0.64-3.74v-0.26c0-0.39,0.39-0.39,0.39-0.39c0.13-0.52-0.26-1.29,0-1.8c0,0,0.26,0,0.26-0.26
			c0.13-0.52,0.13-0.77,0.39-1.03c0.9-0.77,0.52-2.32,0.64-3.73c0.38-0.13,0.52-0.26,0.38-0.64c-0.13-1.16,1.16-0.9,1.03-1.94
			c0.39-1.16,0.13-2.45,0.39-3.48h0.26c0.13-0.13,0-0.51,0-0.64c0.13-0.52,0.39-0.38,0.64-0.64c0.13-0.13,0-0.64,0-0.64
			c0.13-0.64,0-0.77,0.39-1.03c0.13-0.26,0-0.64,0-0.77c0.26-0.9,0.64-1.68,0.64-2.7C188.76,201.56,189.79,200.78,189.92,199.24z
			 M181.42,251.53c-0.13-0.77,0.26-1.8-0.64-1.55C180.78,250.64,180.91,251.28,181.42,251.53z M181.42,252.18
			c-0.13,0.39,0.13,1.29,0.26,0.64C181.8,252.31,181.55,251.53,181.42,252.18z M182.71,253.73c-0.13-0.26,0.13-1.8-0.39-0.9
			c0.13,1.29-0.26,2.83,0.78,3.35C183.22,255.53,182.84,254.5,182.71,253.73z"/>
		<path class="st0" d="M209.12,236.08c1.29,0.52,0-1.42,1.03-0.26c0.77,0-1.16-1.8,0.39-1.03c0.38-1.42-1.03-0.78-1.03-1.68
			c-0.13-1.93-0.13-3.61,1.03-4.38c-0.9-0.64,0-1.29,0-2.45c0.52-0.26,0.26-0.9,1.03-0.26c0.26-0.9,0.13-2.06,0.26-3.09
			c0,0,0.39,0,0.39-0.26c0,0-0.13-0.26,0-0.26c0-0.52,0-0.78,0.26-1.8c0-0.13,0.39,0,0.52-0.39c0,0-0.13-0.13,0-0.26
			c0-0.39,0-0.78,0.26-1.55c0-0.13,0.26-0.13,0.26-0.39c0-1.29,0.77-2.7,1.03-4.12c0.38-1.54,0.51-3.48,1.03-5.02
			c0.13-0.26,0.26-0.52,0.39-0.64c0.13-0.39,0.39-1.42,0.64-2.06c0-0.26-0.13-0.52,0-0.64c0-0.13,0.64-0.64,0.64-0.64
			c0.13-0.52,0-1.29,0-1.8c0,0,0.26,0,0.26-0.26v-0.26c0.13-0.39,0.38-0.39,0.38-0.39c0.13-0.52,0.13-0.9,0.26-1.41
			c0.38-0.52,0.64-1.03,1.16-1.68c0-0.13,0.26-0.26,0.26-0.26c0.39-0.52,0.39-1.29,0.64-2.06c0.13-0.39,0.64-1.03,1.16-1.29
			c0-0.77,0-1.41,0-2.19c0.64-0.64,1.03-2.06,1.68-3.22c-1.55-0.13-2.83,0.77-4.12,1.29c-0.9,0.39-1.93,0.52-2.96,1.16
			c-0.13,0,0,0.26-0.39,0.26c-0.26,0-0.52,0-0.77,0c-0.13,0-0.39,0.52-0.52,0.52c-0.13,0.13-0.52,0-0.77,0
			c-0.26,0.13-0.52,0.26-1.03,0.39c-0.26,0.26-0.52,0.39-0.9,0.39c-0.9,0.26-2.58,1.67-4.13,1.67c-0.64,0.39-1.15,1.03-1.54,1.42
			c-1.55-0.26-1.68,0.52-2.71,0.52c-0.64,0.26-0.64,0.77-1.16,0.77c0,0.39-1.03,0.13-1.03,0.64c-1.29,0-2.32,0-3.61,0
			c0-0.39-0.26-0.26-0.26,0c-0.77-0.26-0.77-0.52-0.39-0.9c-1.03-0.65-1.41,0.13-2.06-0.52c-0.26-0.9,0.52-0.9,0.64-1.55
			c-0.26-1.16,0.39-1.29,0.39-2.06c0.38-0.13,0.64-0.52,1.03-0.78c0,0,0.13-0.52,0.39-0.52c0.13,0,0.52,0,0.52,0
			c0.39-0.26,0.64-0.52,1.16-0.77c0.13,0,0.13-0.52,0.26-0.64c0.13,0,0.39,0.13,0.64,0c0.39-0.13,0.39-0.77,0.64-1.03
			c0.13,0,0.65,0.13,0.65,0c0.13,0,0.38-0.52,0.38-0.64c0.26,0,0.52,0.13,0.64,0c0.39-0.52,0.9-0.77,1.68-0.9
			c0.64-0.39,1.03-0.9,1.42-1.42c2.06-0.38,3.73-1.93,5.66-3.09c1.93-0.9,3.74-1.68,5.8-2.57c0.64-0.26,1.03-0.39,1.55-0.65
			c0.52-0.26,0.64-0.77,1.16-0.77c0.64,0,1.41-0.64,2.32-1.03c0.13,0,0.51,0,0.64,0c0.13-0.26,0.38-0.26,0.77-0.26
			c0,0,0.77-0.26,0.77-0.39c0.39-0.26,1.03-0.38,1.94-0.77c0,0,0-0.26,0.26-0.26c0.52,0,0.52-0.13,1.03-0.39
			c0.38,0,1.16,0,1.68-0.26c0.38-0.13,0.51-0.51,0.9-0.64c0.77-0.38,2.06-0.64,3.22-0.9c0.64-0.39,1.54-0.9,2.19-1.16
			c1.68-0.52,4.12-1.03,6.19-1.55c1.03-0.52,2.19-0.77,3.61-1.16c0.13,0,0.26-0.26,0.26-0.26c0.64-0.13,1.42,0.13,2.06,0
			c0.64-0.13,1.29-0.64,1.8-0.77c0.26,0,0.9,0.13,1.29,0c0.26,0,0.26-0.26,0.64-0.39c0.52,0,0.9,0.13,1.29,0
			c0.52,0,1.29-0.13,2.45-0.26c0.77,0,0.9-0.38,1.41-0.38c0.39,0,0.52,0.38,0.9,0.38c0.9,0,1.81-0.38,2.71-0.38
			c2.45-0.13,4.64,0.38,6.7,1.03c1.29,0.38,2.71,1.03,3.35,1.67c0.64,0.78,0.77,1.55,1.03,2.45c0-0.13,0.64,0.13,0.39,0.26
			c-0.52,0.52,0,0.13,0,0.52c0.13,0.38-0.26,1.16,0.38,1.16c-0.64,0.64-0.26,1.8-1.16,2.06c-0.26,0.26,0.26,1.03-0.26,1.68
			c-0.64,0-0.9,0.26-1.03,0.77c-1.55-0.51-2.71-0.51-5.02-0.77c0,0,0-0.39-0.39-0.39c-0.26,0-0.39,0.39-0.39,0.39
			c-0.26,0-0.52-0.64-1.54-0.39c-0.13,0.13-0.52,0.39-0.39,0.39c-0.52,0-0.64-0.39-1.03-0.39c-0.52,0.13-0.64,0.39-1.29,0.39
			c-1.8,0.26-4.25,0.13-5.54,1.42c-0.78,0.13-0.78-0.52-1.55-0.39c-3.87,2.19-10.31,1.8-14.17,4.12c-0.64,0-1.29,0-1.93,0
			c-1.03,0-1.68,0.52-2.19,1.29c-1.55-0.39-2.06,0.39-3.22,0.64c0,1.29,1.16,1.29,1.03,2.71c-0.13,1.16-0.52,2.06-0.77,3.22
			c0,0.13,0.13,0.78,0,0.78c-0.64,0.51-0.64,1.8-1.03,3.09c0,0.13,0,0.52,0,0.52c-0.39,0.52-1.03,2.96-1.16,4.12
			c-0.26,0.77-0.26,1.41-0.52,2.06c-0.13,0.64-0.13,1.55-0.26,2.06c-0.13,0-0.39,0-0.39,0.26c0,0.26-0.26,0.26-0.64,0.26
			c0.64,2.06-0.52,4.25-0.9,6.44c-0.13,0.26,0,0.52,0,0.65c-0.13,0.38-0.52,0.38-0.52,0.38c-0.26,1.29-0.13,2.71-0.64,3.74
			c0,0.13-0.13,0-0.26,0.38c-0.13,0.52-0.13,1.68-0.52,2.58c0,0-0.26,0.26-0.26,0.38c-0.26,1.03-0.26,2.19-0.52,3.74
			c-0.26,1.29-0.77,2.57-1.03,3.99c-0.26,1.29-0.38,2.71-0.64,3.99c-0.52,1.8-1.03,3.48-1.41,5.03c0,0.26,0,0.52,0,0.77
			c0,0.13-0.39,0.26-0.39,0.26c-0.26,1.55,0,2.45-0.26,3.99c-0.13,0.26-0.52,1.8-0.64,2.45c-0.13,0.39,0.13,0.9,0,1.42
			c-0.13,0.26-0.78,1.68-0.78,2.7c-0.13,2.06,0.52,4.51,0,6.06c-0.13,0.26-0.64,1.93-1.68,1.93c-0.38,0-0.64,0.64-1.67,0.26
			c0,0.26-1.03-0.26-1.03-0.26v-0.26c-0.39-0.26-1.03-0.51-1.29-0.64c-0.13-0.26,0-0.64,0-0.77c-0.52-0.26-1.55-0.9-2.06-1.29
			c-0.64-0.64-1.29-1.55-1.29-2.45c-0.9-0.13,0.26,1.93-1.16,1.29c-0.9-1.55-0.9-3.35-0.52-5.15c0-0.38,0-0.64,0-0.77
			c0,0,0.26-1.03,0.26-1.16c0.26-0.26,0.13-0.39,0-1.55c0-1.8,0.52-3.61,0.65-5.54c0.13-0.39,0.9,0,0.77,0
			c0.26,0,0.26-0.52,0.64-0.52c-0.26-0.52-0.52,0.13-1.03,0c0-1.68,1.03,0,1.42-1.41c-0.39-0.39-0.64-0.78-1.03-1.03
			C209,235.82,209.12,235.95,209.12,236.08z"/>
		<path class="st0" d="M255.9,183.39c0,0.13-0.64,0-0.64,0c-0.13,0.26,0.38,0.26,0.26,0.64c0,0-0.26,0-0.26,0.39
			c-0.13,0.13,0,0.39,0,0.52c-0.13,0.52-0.52,2.19-0.64,3.48c0,0.52,0,1.29,0,1.8c-0.26,1.41-0.9,4.38-1.16,6.7
			c0.26,1.29-1.29,0.9-1.29,1.94c-0.13,1.54-0.52,2.7-0.9,4.51c-0.13,0.52-0.13,1.42-0.39,2.19c-0.13,0.9-0.64,1.41-0.77,2.06
			c0,0.65,0.13,1.16,0,2.06c0,0.26-0.26,0.52-0.39,0.39c0.13,0.9,0.78,1.68,0.78,2.32c0,0.77-0.26,0.77-0.39,1.29
			c0,0,0.39,0.26,0.39,0.38c0,0-0.39,0-0.39,0.39c0,1.93,0,2.96-0.39,5.03c0,0.77-0.51,1.41-0.51,2.06c-0.39,1.93,0,3.87-0.39,5.67
			c-0.26,0.9-0.52,1.8-0.77,2.96c-0.13,0.9,0,1.8-0.13,2.83c0,0-0.38,0-0.38,0.38c-0.13,1.8-0.78,4.51-1.16,6.7
			c0,0.38,0.26,0.64,0,1.03c0,0.26-0.13,0.9-0.26,2.19c0,0.39-0.26,0.52-0.26,0.9c-0.13,1.03,0.38,1.29,0.26,2.7
			c0,0,0.13,0.52,0,0.52c-0.38,0.39-0.64,1.55-1.68,2.57c-1.93,0.26-3.09-1.03-4.12-1.41c-0.26-0.26-0.38-0.52-0.51-0.77
			c-0.9-0.39-2.06-0.13-3.22-0.9c0.13-0.77-0.39-0.77-0.64-1.03c-0.13-0.26,0-0.64,0-0.77c-0.64-0.38-0.52-0.13-0.64-1.68
			c0,0,0.13-0.52,0-0.52c-0.26-0.51-0.39-1.03-0.39-2.19c0-0.13,0.52-0.26,0.39-0.64c0-0.26-0.39,0-0.39-0.39
			c0-1.16-0.38-2.96,0-4.38c0-0.13,0.52-0.9,0.39-1.03c-0.39-0.39,0,0,0-0.39c0,0-0.64-0.64-0.39-0.9c0.52-0.39,0.78-0.9,0.78-1.94
			c0-0.26-0.39-0.38-0.39-0.77c0-0.13,0.39-0.39,0.39-0.52c0.13-2.19,0.51-4.12,0.9-5.8c0.13-0.52,0.26-1.16,0.26-1.8
			c0.38-1.29,0.38-2.57,0.9-3.61c0,0,0.26-0.13,0.39-0.39c0.38-1.8,0.77-4.51,1.29-6.82c0,0,0.39,0,0.39-0.26
			c0.13-0.51-0.26-1.16,0-1.93c0,0,0.26,0,0.26-0.13c0-0.77,0.26-1.29,0.26-2.32c0.13-0.26,0-0.64,0-0.77
			c0.52-0.39,0.39-0.9,0.78-2.06c0.13-0.52,0.52-0.9,0.64-1.68c0.26-0.64,0.26-1.16,0.39-1.68c0.13-0.51,0.38-1.16,0.51-1.67
			c0.26-0.52,0.26-1.03,0.39-1.68c0-0.13,0.52-0.52,0.77-0.64c0.13-0.64,0-1.29,0.52-1.8c0-0.13-0.38-0.52,0-0.78
			c0.26-0.26,0.9-2.06,1.16-3.22c0.26-0.52,0.39-1.03,0.64-1.8c0.13-0.13,0.26,0,0.26-0.26v-1.03c0.38-0.13,0.38-0.13,0.38-0.64
			c0.26-0.39,0.64-0.52,0.78-0.9c0.13-0.77,0.13-1.55,0.52-2.06c0.26-0.13,0.38-0.9,0.38-1.03c0.39-0.39,0.39-1.03,0.78-1.8
			c0,0,0.51-0.13,0.51-0.39c0.39-0.52,0.13-1.41,1.16-1.68c1.68-1.41,4.25,0.39,5.03,1.68C255.51,181.34,256.41,183.01,255.9,183.39
			z"/>
		<path class="st0" d="M256.16,241.23c-0.51,0.51,0,2.32-0.77,2.83c-0.39,0.26-0.52,0-0.64-0.38c0-0.26,0.26-0.52,0.26-0.52
			c0-0.52-0.26-0.64-0.26-1.42c0,0.13,0.26,0,0.26-0.13c0-0.64,0-1.03,0-1.54C256.29,239.68,255.26,241.36,256.16,241.23z
			 M256.16,248.57c-0.77-0.13-0.9,0.52-0.38,0.77c-0.13,0.52-0.52,0-0.78,0c-0.26-0.52,0-0.26,0-0.77c0-0.64,0-1.68,0-2.32
			C256.03,246.64,256.03,247.54,256.16,248.57z M264.53,253.34c-0.39-0.38-0.26-1.68-0.39-2.32c0-0.9-0.39-2.06,0-2.06
			c1.03-0.13,1.03,0.77,1.16,1.29c0,0.77-1.03,0.39-0.77,1.29c0.77,0.13,0.77-0.39,1.16-0.52c0.13-0.38,0.52-0.77,0.9-1.54
			c0.13,0,0.39-0.13,0.39-0.13c0.13-0.38,0.13-0.9,0.39-1.16c0-0.13,0.51,0.26,0.51,0c0.13-0.13,0.13-0.64,0.39-0.9
			c0.39-0.39,1.93-1.42,1.93-2.06c0-0.51,0.64-0.26,0.78-0.38c0.64-0.52,1.16-1.16,1.8-1.68c0.13-0.39,0.64-0.39,0.9-0.64
			c0.39-0.26,0.39-0.78,0.64-0.9c0.26-0.26,0.78,0,0.9,0c0.26-0.26,0.26-0.77,0.39-0.77c0.64-0.26,0.9-0.26,1.54-0.39
			c0,0-0.26-0.38,0.13-0.38c0.13,0,0.39,0.26,0.39,0c1.03-0.13,2.45-1.16,4.51-0.52c0.64,0.13,0.52,0.38,1.29,0.9
			c0.52,0.39,1.16,0.13,1.41,1.16c0.13,0.13,0.13,0.64,0,0.9c-0.26,0.64-0.77,1.41-1.41,1.93c-0.39,0.39-0.9,0.26-1.29,0.39
			c-0.26,0.13-0.64,0.52-0.78,0.77c-1.41,1.03-2.96,1.68-4.12,2.32c-0.38,0.13-0.52,0.64-0.52,1.41c-1.54,0-2.06,1.03-3.09,2.19
			c-0.38,0.52-1.29,1.42-1.68,1.8c0,0.13,0.13,0.64,0,0.64c-0.9,0.78-1.93,2.06-3.09,2.96c0,1.29-1.03,1.29-1.03,2.45
			c-0.51,0-1.16,0.26-1.29,0.78c-1.29-0.39-1.68-1.42-3.35-1.29c-0.38-0.9-1.15-1.55-2.06-1.94c0.26-1.68-0.9-2.06-0.77-3.61
			c1.29,0,1.54,1.03,1.68,1.93c1.15-0.38,0-1.67-0.13-1.93c-0.52-0.64-1.68-0.38-2.06-1.16c-0.13-0.9-0.13-1.54,0.26-1.93
			c0-1.29,0.52,0.13,1.03-0.77c0-0.65-0.52-1.29-1.29-1.29c0.52-0.26-0.13-1.03,0-1.54c0-1.42,0.77-2.32,0.9-3.87
			c0.39,0.26,0.39,0.78,1.16,0.78c0-0.9-0.77-0.9-1.54-1.03c0.26-0.78,0-1.55,0-2.45c0.26-1.03,0.38-2.83,0.77-4.25
			c0.26-0.77,0.26-0.9,0.39-1.54c0-0.13,0-0.64,0-0.9c0,0-0.39-0.52-0.39-0.26c0-0.39,0.52-1.16,0.77-1.42
			c0.13-1.16,0-2.19,0.13-3.35c-1.68-0.64-0.9,0.9-1.29,1.29c0,0.26-0.52-0.13-0.64,0c-0.26,0.26-0.26,0.52-0.64,0.77
			c0.26,0.39,0.9-0.38,0.64,1.29c0.13,0.64-0.38,0.52-0.9,0.52c0.13,1.42-0.64,1.55-0.39,2.83c0.39,0,0.39-0.39,0.39-0.77
			c0.9,0.26,0.26,1.54,0.26,2.45c0,1.29,0,2.32,0,3.35c-1.16-0.13-1.16,0.77-1.68,1.54c-0.64,0-0.26-0.77-0.38-1.16
			c-0.26-0.38-0.78-0.38-1.16-0.52c0.64-1.29-0.13-3.99,0.38-5.66c0.26,0,0.39,0,0.39-0.13c0-0.39,0.39-0.39,0.77-0.39
			c-0.26-0.52-1.16-0.13-1.16-0.64c0.26-1.68,0-2.06,1.68-2.58c-0.26-0.38-0.9,0.39-0.9-0.13s-0.26-0.77-0.39-0.77
			c0.77-1.41,0.39-3.48,0.77-5.41c0,0,0.26-0.13,0.52-0.39c0-0.13-0.26-0.9,0-0.9c0.52-0.52,0-1.55,0.52-2.32
			c0.39-0.39,0-1.55,0.64-1.8c-0.13-0.52-1.03-0.39-0.64-1.42c-0.26-0.77,0.52-0.39,0.64-0.52c0.26-0.26-0.13-0.77,0.39-0.77
			c-0.64-1.41,0.38-3.61,0.9-4.64c0.78,0,0.26,1.03,1.16,0.9c0.39-1.29-0.9-0.9-0.77-2.06c0.39-0.13,0-1.29,0.39-1.68
			c0,0,0.13,0,0.38,0c0.39-0.9,0.52-1.93,0.9-2.96c0.38-1.16,0.13-1.8,0.9-2.32c0.13,0,1.03-0.64,0.78-0.77
			c-0.26-0.26-0.39-0.52,0.77-0.52c-0.77-0.77,0-0.64,0.39-1.16c0.13-0.39,0.13-0.9,0.52-0.9c-0.39-0.39-0.39-1.42-0.39-2.06
			c0.64,0,0.26-0.9,0.39-1.16c0.26,0,0.77,0.26,0.77,0c0.13-0.39,0-0.9,0.39-1.68c0.13-0.26,0.38-0.64,0.51-1.29
			c0.78-1.68,1.42-3.73,2.32-5.28c0.26-0.26,0.39,0,0.39-0.39c0-0.9,0.52-1.29,1.03-2.19c0.26-0.39,0.77-0.52,0.77-0.9
			c0-0.52,0.52-0.52,0.77-0.77c0-0.13-0.26-0.52,0-0.64c0,0,0.13,0.13,0.13,0c0.13,0,0-0.52,0-0.52c0.13-0.26,0.38,0,0.38,0
			c0.13-0.26,0-0.77,0-0.77c0.39-0.26,0.52-0.39,0.64-0.78c0,0,0.26-0.9,0.39-0.9c0.26-0.13,0.9-0.39,0.9-1.03
			c0-0.52,1.15-1.29,1.15-1.8c0-0.39,0.52-0.39,0.52-0.52c0.13-0.26,0-0.52,0-0.77c0.13-0.13,0.9-0.39,1.16-0.78
			c0.78-0.64,1.94-1.93,3.74-1.16c0.64,0.26,1.93,1.16,2.7,2.32c0.13,0.78,0,1.03-0.26,1.68c-0.52,0.26-0.52,0.52-0.52,1.03
			c-0.13,0.52-0.52,0.64-0.64,1.03c-0.26,0.38-0.26,0.52-0.39,0.9c-0.26,0.52-0.38,0.52-0.52,1.55c-0.26,0.26-0.64,0.52-0.77,0.9
			c-0.52,1.29-0.9,2.97-1.68,4.12c-0.13,0.13-0.13,0.9-0.39,0.9c0,0.13-0.26,0-0.26,0c-0.26,0.64,0,1.41-0.39,1.93
			c0,0.26-0.64,0.26-0.64,0.39c-0.13,0.39,0,1.55-0.26,2.19c0,0.13-0.77,0-0.9,0c-0.13,0.13,0.13,0.64-0.13,0.64
			c0,1.54-0.64,2.45-1.16,3.73c0,0,0.26,0.52,0,0.52c-0.38,0.39-0.52,1.8-0.9,2.45c-0.39,0.39,0,1.16-0.39,2.06
			c-0.13,0.13-0.52,0.38-0.64,0.64c-0.39,0.64,0,0.77-0.39,1.68c0,0.13-0.26,0.51-0.38,1.03c0,0.39-0.13,0.52-0.13,1.16
			c-0.26,0.13-0.38,0.52-0.38,0.9c-0.26,0.26-0.26,0.52-0.39,1.03l-0.39,0.9h-0.38c-0.13,0.9-0.13,2.57-0.64,3.22
			c-0.13,0-0.13,0.77-0.39,0.9c-0.52,0.39-0.13,0.64-0.39,1.68c0,0-0.26,0-0.26,0.39c0,0,0,0.13,0,0.38
			c-0.26,0.52-0.26,2.19-0.64,3.35c-0.13,0.13-0.39,0-0.39,0.39c0,0.13-0.13,1.8-0.26,2.32c-0.26,0.26-0.64,0.26-0.78,0.64
			c-0.13,1.03,0,2.06-0.13,3.35c-0.26,0.13-0.38,0-0.38,0.39c0,0.13,0,0.39,0,0.39c-0.26,0.26-0.39,1.03-0.78,2.32
			c0-0.13,0.52,0.13,0.39,0.38c-0.39,0.13-0.52,0.13-0.77,0.52c-0.13,1.41-0.13,3.22-0.39,4.89c-0.26,0-0.9-0.26-0.9,0.39
			c0,0.13,0.39,0.13,0.78,0.13c0,0.39-0.52,0.39-0.78,0.39c0.26,0.39,0.39,0.52,0.78,0.64c0.13,0.39-0.39,0.64-0.39,0.64
			c0,0.39,0.39,0.39,0.39,0.64c0,1.03,0,1.93,0,2.96c0,0.26-0.39,0.52-0.39,0.9c0,0,0.39,0.13,0.39,0.26c0,0.64-0.52,1.29-0.78,2.06
			c-0.38,1.41,0,2.45,0,3.73c-1.03,0-0.77-0.52-1.41,0c-0.26,1.68-0.26,2.71,0.26,4.51c0.13,0.52-0.26,0.52-0.52,0.52
			C263.5,254.76,264.15,253.34,264.53,253.34z M259.51,245.22c-0.52,0.39-0.9,1.16-1.03,2.06c-0.9-0.39-0.64-1.68-0.64-2.83
			C259.25,243.93,258.48,245.35,259.51,245.22z M258.48,244.06c0.13-0.9,1.29-0.64,1.03,0.39
			C259.25,244.32,258.99,244.06,258.48,244.06z M261.57,214.05c1.03,0.26,0.9-0.9,0.9-2.06c0.13,0,0.39-0.13,0-0.39
			c0,0.78-0.52,0.9-0.9,1.55C262.09,213.15,261.7,213.92,261.57,214.05z M261.96,226.8 M262.09,248.96
			c0.26,0.52-0.52,2.19,0.77,2.06C262.6,250.25,263.38,248.57,262.09,248.96z M262.09,243.16c0,0.39,0,0.9,0,1.29
			c0.77,0.26,0.77-0.39,1.15-0.77c0,0.26,0.13,0.38,0.26,0C262.86,243.68,262.99,242.77,262.09,243.16z"/>
		<path class="st0" d="M289.28,241.23c-0.51,0.51,0,2.32-0.77,2.83c-0.39,0.26-0.52,0-0.64-0.38c0-0.26,0.26-0.52,0.26-0.52
			c0-0.52-0.26-0.64-0.26-1.42c0,0.13,0.26,0,0.26-0.13c0-0.64,0-1.03,0-1.54C289.41,239.68,288.38,241.36,289.28,241.23z
			 M289.28,248.57c-0.77-0.13-0.9,0.52-0.38,0.77c-0.13,0.52-0.52,0-0.78,0c-0.26-0.52,0-0.26,0-0.77c0-0.64,0-1.68,0-2.32
			C289.15,246.64,289.15,247.54,289.28,248.57z M297.65,253.34c-0.39-0.38-0.26-1.68-0.39-2.32c0-0.9-0.39-2.06,0-2.06
			c1.03-0.13,1.03,0.77,1.16,1.29c0,0.77-1.03,0.39-0.77,1.29c0.77,0.13,0.77-0.39,1.16-0.52c0.13-0.38,0.52-0.77,0.9-1.54
			c0.13,0,0.39-0.13,0.39-0.13c0.13-0.38,0.13-0.9,0.39-1.16c0-0.13,0.51,0.26,0.51,0c0.13-0.13,0.13-0.64,0.39-0.9
			c0.39-0.39,1.93-1.42,1.93-2.06c0-0.51,0.64-0.26,0.78-0.38c0.64-0.52,1.16-1.16,1.8-1.68c0.13-0.39,0.64-0.39,0.9-0.64
			c0.39-0.26,0.39-0.78,0.64-0.9c0.26-0.26,0.78,0,0.9,0c0.26-0.26,0.26-0.77,0.39-0.77c0.64-0.26,0.9-0.26,1.54-0.39
			c0,0-0.26-0.38,0.13-0.38c0.13,0,0.39,0.26,0.39,0c1.03-0.13,2.45-1.16,4.51-0.52c0.64,0.13,0.52,0.38,1.29,0.9
			c0.52,0.39,1.16,0.13,1.41,1.16c0.13,0.13,0.13,0.64,0,0.9c-0.26,0.64-0.77,1.41-1.41,1.93c-0.39,0.39-0.9,0.26-1.29,0.39
			c-0.26,0.13-0.64,0.52-0.78,0.77c-1.41,1.03-2.96,1.68-4.12,2.32c-0.38,0.13-0.52,0.64-0.52,1.41c-1.54,0-2.06,1.03-3.09,2.19
			c-0.38,0.52-1.29,1.42-1.68,1.8c0,0.13,0.13,0.64,0,0.64c-0.9,0.78-1.93,2.06-3.09,2.96c0,1.29-1.03,1.29-1.03,2.45
			c-0.51,0-1.16,0.26-1.29,0.78c-1.29-0.39-1.68-1.42-3.35-1.29c-0.38-0.9-1.15-1.55-2.06-1.94c0.26-1.68-0.9-2.06-0.77-3.61
			c1.29,0,1.54,1.03,1.68,1.93c1.15-0.38,0-1.67-0.13-1.93c-0.52-0.64-1.68-0.38-2.06-1.16c-0.13-0.9-0.13-1.54,0.26-1.93
			c0-1.29,0.52,0.13,1.03-0.77c0-0.65-0.52-1.29-1.29-1.29c0.52-0.26-0.13-1.03,0-1.54c0-1.42,0.77-2.32,0.9-3.87
			c0.39,0.26,0.39,0.78,1.16,0.78c0-0.9-0.77-0.9-1.54-1.03c0.26-0.78,0-1.55,0-2.45c0.26-1.03,0.38-2.83,0.77-4.25
			c0.26-0.77,0.26-0.9,0.39-1.54c0-0.13,0-0.64,0-0.9c0,0-0.39-0.52-0.39-0.26c0-0.39,0.52-1.16,0.77-1.42
			c0.13-1.16,0-2.19,0.13-3.35c-1.68-0.64-0.9,0.9-1.29,1.29c0,0.26-0.52-0.13-0.64,0c-0.26,0.26-0.26,0.52-0.64,0.77
			c0.26,0.39,0.9-0.38,0.64,1.29c0.13,0.64-0.38,0.52-0.9,0.52c0.13,1.42-0.64,1.55-0.39,2.83c0.39,0,0.39-0.39,0.39-0.77
			c0.9,0.26,0.26,1.54,0.26,2.45c0,1.29,0,2.32,0,3.35c-1.16-0.13-1.16,0.77-1.68,1.54c-0.64,0-0.26-0.77-0.38-1.16
			c-0.26-0.38-0.78-0.38-1.16-0.52c0.64-1.29-0.13-3.99,0.38-5.66c0.26,0,0.39,0,0.39-0.13c0-0.39,0.39-0.39,0.77-0.39
			c-0.26-0.52-1.16-0.13-1.16-0.64c0.26-1.68,0-2.06,1.68-2.58c-0.26-0.38-0.9,0.39-0.9-0.13s-0.26-0.77-0.39-0.77
			c0.77-1.41,0.39-3.48,0.77-5.41c0,0,0.26-0.13,0.52-0.39c0-0.13-0.26-0.9,0-0.9c0.52-0.52,0-1.55,0.52-2.32
			c0.39-0.39,0-1.55,0.64-1.8c-0.13-0.52-1.03-0.39-0.64-1.42c-0.26-0.77,0.52-0.39,0.64-0.52c0.26-0.26-0.13-0.77,0.39-0.77
			c-0.64-1.41,0.38-3.61,0.9-4.64c0.78,0,0.26,1.03,1.16,0.9c0.39-1.29-0.9-0.9-0.77-2.06c0.39-0.13,0-1.29,0.39-1.68
			c0,0,0.13,0,0.38,0c0.39-0.9,0.52-1.93,0.9-2.96c0.38-1.16,0.13-1.8,0.9-2.32c0.13,0,1.03-0.64,0.78-0.77
			c-0.26-0.26-0.39-0.52,0.77-0.52c-0.77-0.77,0-0.64,0.39-1.16c0.13-0.39,0.13-0.9,0.52-0.9c-0.39-0.39-0.39-1.42-0.39-2.06
			c0.64,0,0.26-0.9,0.39-1.16c0.26,0,0.77,0.26,0.77,0c0.13-0.39,0-0.9,0.39-1.68c0.13-0.26,0.38-0.64,0.51-1.29
			c0.78-1.68,1.42-3.73,2.32-5.28c0.26-0.26,0.39,0,0.39-0.39c0-0.9,0.52-1.29,1.03-2.19c0.26-0.39,0.77-0.52,0.77-0.9
			c0-0.52,0.52-0.52,0.77-0.77c0-0.13-0.26-0.52,0-0.64c0,0,0.13,0.13,0.13,0c0.13,0,0-0.52,0-0.52c0.13-0.26,0.38,0,0.38,0
			c0.13-0.26,0-0.77,0-0.77c0.39-0.26,0.52-0.39,0.64-0.78c0,0,0.26-0.9,0.39-0.9c0.26-0.13,0.9-0.39,0.9-1.03
			c0-0.52,1.15-1.29,1.15-1.8c0-0.39,0.52-0.39,0.52-0.52c0.13-0.26,0-0.52,0-0.77c0.13-0.13,0.9-0.39,1.16-0.78
			c0.78-0.64,1.94-1.93,3.74-1.16c0.64,0.26,1.93,1.16,2.7,2.32c0.13,0.78,0,1.03-0.26,1.68c-0.52,0.26-0.52,0.52-0.52,1.03
			c-0.13,0.52-0.52,0.64-0.64,1.03c-0.26,0.38-0.26,0.52-0.39,0.9c-0.26,0.52-0.38,0.52-0.52,1.55c-0.26,0.26-0.64,0.52-0.77,0.9
			c-0.52,1.29-0.9,2.97-1.68,4.12c-0.13,0.13-0.13,0.9-0.39,0.9c0,0.13-0.26,0-0.26,0c-0.26,0.64,0,1.41-0.39,1.93
			c0,0.26-0.64,0.26-0.64,0.39c-0.13,0.39,0,1.55-0.26,2.19c0,0.13-0.77,0-0.9,0c-0.13,0.13,0.13,0.64-0.13,0.64
			c0,1.54-0.64,2.45-1.16,3.73c0,0,0.26,0.52,0,0.52c-0.38,0.39-0.52,1.8-0.9,2.45c-0.39,0.39,0,1.16-0.39,2.06
			c-0.13,0.13-0.52,0.38-0.64,0.64c-0.39,0.64,0,0.77-0.39,1.68c0,0.13-0.26,0.51-0.38,1.03c0,0.39-0.13,0.52-0.13,1.16
			c-0.26,0.13-0.38,0.52-0.38,0.9c-0.26,0.26-0.26,0.52-0.39,1.03l-0.39,0.9h-0.38c-0.13,0.9-0.13,2.57-0.64,3.22
			c-0.13,0-0.13,0.77-0.39,0.9c-0.52,0.39-0.13,0.64-0.39,1.68c0,0-0.26,0-0.26,0.39c0,0,0,0.13,0,0.38
			c-0.26,0.52-0.26,2.19-0.64,3.35c-0.13,0.13-0.39,0-0.39,0.39c0,0.13-0.13,1.8-0.26,2.32c-0.26,0.26-0.64,0.26-0.78,0.64
			c-0.13,1.03,0,2.06-0.13,3.35c-0.26,0.13-0.38,0-0.38,0.39c0,0.13,0,0.39,0,0.39c-0.26,0.26-0.39,1.03-0.78,2.32
			c0-0.13,0.52,0.13,0.39,0.38c-0.39,0.13-0.52,0.13-0.77,0.52c-0.13,1.41-0.13,3.22-0.39,4.89c-0.26,0-0.9-0.26-0.9,0.39
			c0,0.13,0.39,0.13,0.78,0.13c0,0.39-0.52,0.39-0.78,0.39c0.26,0.39,0.39,0.52,0.78,0.64c0.13,0.39-0.39,0.64-0.39,0.64
			c0,0.39,0.39,0.39,0.39,0.64c0,1.03,0,1.93,0,2.96c0,0.26-0.39,0.52-0.39,0.9c0,0,0.39,0.13,0.39,0.26c0,0.64-0.52,1.29-0.78,2.06
			c-0.38,1.41,0,2.45,0,3.73c-1.03,0-0.77-0.52-1.41,0c-0.26,1.68-0.26,2.71,0.26,4.51c0.13,0.52-0.26,0.52-0.52,0.52
			C296.62,254.76,297.26,253.34,297.65,253.34z M292.63,245.22c-0.52,0.39-0.9,1.16-1.03,2.06c-0.9-0.39-0.64-1.68-0.64-2.83
			C292.37,243.93,291.59,245.35,292.63,245.22z M291.59,244.06c0.13-0.9,1.29-0.64,1.03,0.39
			C292.37,244.32,292.11,244.06,291.59,244.06z M294.69,214.05c1.03,0.26,0.9-0.9,0.9-2.06c0.13,0,0.39-0.13,0-0.39
			c0,0.78-0.52,0.9-0.9,1.55C295.21,213.15,294.82,213.92,294.69,214.05z M295.07,226.8 M295.21,248.96
			c0.26,0.52-0.52,2.19,0.77,2.06C295.72,250.25,296.49,248.57,295.21,248.96z M295.21,243.16c0,0.39,0,0.9,0,1.29
			c0.77,0.26,0.77-0.39,1.15-0.77c0,0.26,0.13,0.38,0.26,0C295.98,243.68,296.1,242.77,295.21,243.16z"/>
		<path class="st0" d="M359.23,192.28c0.77,0.13,0,0.9,0,0.78c0.13,1.29,1.16,3.99-0.13,4.77c0.26,0.64,0.52,1.29,0.52,2.06
			c0,0.64-0.26,1.03-0.39,1.68c-0.13,2.58-0.13,6.05-0.9,8.37c-1.03,0.26,0.26-1.8-0.77-1.54c0.64-0.64-0.13-0.52,0-1.29
			c-0.64,0.51-0.38,1.29-0.38,2.06c0.13,1.16,1.41,2.06,0.38,3.09c-0.77,0-0.13-1.29-0.38-1.8c-1.16,0.26-0.39,1.29-0.52,2.32
			c-0.13,0.39-0.39,0.52-0.39,0.52c-0.26,1.03-0.13,2.19-0.39,2.96c0,0.13-0.13,0-0.26,0.39c0,0.26-0.13,0.9-0.26,1.41
			c0,0.13-0.38,0.52-0.38,0.39c0.13,0.77,0.9,0.39,0.38,1.16c-0.13,0.26-0.38,0.26-0.38,0.77s0.52,1.16,0.38,1.55
			c-0.26,0.13-0.38-0.9-0.64-0.52c-0.77,0.39-0.26,2.57-0.64,4.12c-0.77,0.77-1.16,1.41-1.54,2.32c0,0,0.13,0.9-0.26,1.68
			c0,0.13-1.03,0.64-1.03,0.77c0,0.64,1.16,0.64,1.03,1.93c0,0.78-0.52,0.52-0.64,1.03c-0.13,0.39,0.13,1.03,0,1.41
			c-0.13,0.13-1.55,0.52-0.77,0.65c-0.13,0.38-0.52,0.77-0.9,1.03c0,0.52,0.39,0.64,0.26,1.42c-0.9,0.13-0.78,1.16-1.03,1.68
			c-0.13,0.26-0.64,0.51-0.77,0.64c0,0.13,0.13,0.51,0,0.64c-0.64,0.52-1.94,1.93-1.94,3.48c-0.38,0.26-1.16,0.64-1.41,0.9
			c-0.26,0.39-0.26,1.55-1.03,1.16c0.78,1.29-0.9,1.42-0.9,2.32c0,0.52-1.16,1.16-1.94,1.68c-0.51,0.52-0.9,1.03-1.29,1.68
			c-1.03-0.26-1.68,0.9-2.7,1.03c-0.52,0-0.9-0.26-1.68-0.39c-0.52,0-1.16,0.13-1.68,0c0,0,0-0.39-0.26-0.39
			c-0.77,0-2.06-0.38-2.45-0.9c-2.83,1.16-3.86-1.55-5.66-1.94c-0.26-0.77-0.52-1.8-0.9-2.32c0-0.51-0.26-0.51-0.52-0.77
			c-0.26-0.13-0.38-0.64-0.77-0.77c0.13-0.39,0-0.64-0.26-0.64c-0.13-2.06-0.26-4.12-0.39-6.06c-0.13-0.64-0.26-1.03-0.26-1.8
			c0-0.64,0.13-1.16,0.26-1.67c0.13-0.65-0.13-1.42,0-2.06c0.13-0.64,0.13-2.32,0.39-3.73c0-0.78,0.51-1.03,0.64-1.68
			c0.13-0.9-0.13-1.55,0-2.32c0.13-1.29,0.38-2.19,0.64-3.22c0.13-0.26,0.26-0.77,0.26-1.41c0.26-0.26,0.77-0.39,0.9-0.9
			c0.38-1.42,0.26-3.22,0.64-4.77c0-0.13,0.38,0,0.38-0.38c0,0,0.26-0.52,0.26-0.9c0.13-0.52,0.26-1.41,0.52-2.06
			c0.38-1.03,1.03-3.22,1.68-4.38c0.26-0.52,0.52-0.64,0.77-1.16c0.26-0.38,0-0.9,0.64-0.9c-0.26-1.29,0.52-1.42,0.39-2.45
			c1.41-1.03,1.68-3.22,3.09-4.38c-0.77-0.9-1.03-2.32-1.41-3.22c-0.39-0.78,0.38-1.42,0.64-2.32c0.38-0.78,0.51-1.68,0.77-2.32
			c0.13-0.26,0.77-0.39,1.03-0.64c0.26-0.26,0.38-0.64,0.64-0.9c0.52-0.77,0.77-1.41,1.29-1.93c0.77-0.52,1.29-0.9,1.8-1.55
			c0.52-0.64,0.9-1.41,1.29-1.8c0.26-0.13,0.78,0.13,1.03,0c0.13-0.13,0.64-0.77,1.16-1.03c0.26-0.26,1.03-0.38,1.55-0.64
			c0.51-0.13,1.41-0.38,2.19-0.64c0.39-0.13,0.78-0.13,1.42-0.38c0.77-0.26,3.48-0.52,5.02,0c0.13,0.13,0.13,0.38,0.26,0.38
			c0.77,0.13,1.41,0.52,2.19,0.64c0.13,0.13,0.39,0,0.64,0c0.13,0.13,0.13,0.52,0.26,0.64c0.52,0.26,0.77,0.13,1.16,0.65
			c0.9,0.77,1.41,1.41,1.54,2.19c0.13,0.26,0.39,0.26,0.39,0.26c0.39,1.54-0.26,3.61,0.39,5.54c0,0.26,0.52,0.26,0.9,0.26
			C359.87,192.03,359.23,191.9,359.23,192.28z M348.41,190.09c-1.03,0.26-1.29,0.64-2.32,1.03c0,0,0-0.26,0-0.38
			c-0.13-0.13-0.78,0.77-0.78,0.77c-0.38,0.13-1.03-0.26-1.67,0.26c-0.13,0.9-0.52,1.54-1.29,2.06c0.13,1.29,1.42,1.29,1.29,2.96
			c-0.52,0.39-0.65,1.16-0.52,2.06c-1.03,0-0.78-0.52-1.42,0c0.13,0.9-1.03,1.67-1.03,2.19c-0.13,0.13,0,0.39,0,0.52
			c-0.13,0.26-0.65,0.52-0.78,0.78c-0.26,0.51-0.38,1.03-0.64,1.54c-0.26,0.64-0.52,1.29-0.64,1.55c-0.13,0.26-0.13,0.52-0.26,0.9
			c-0.13,0.64-0.39,0.64-0.39,1.42c0,0.26-0.26,0.13-0.39,0.26c-0.38,0.9-0.52,2.06-0.77,2.83c-0.26,0.77-0.9,2.57-0.9,3.09
			c0,0.39-0.38,0.26-0.38,0.39c-0.13,0.52,0.13,1.03,0,1.54c0,0.13-0.26,0.13-0.39,0.39c-0.39,1.93-0.64,3.22-1.03,4.64
			c-0.13,1.16-0.13,2.06-0.26,3.09c-0.13,0.9-0.52,1.94-0.77,2.71c-0.13,0.9,0.26,1.93,0,2.83c-0.52,4.77-0.78,9.79,0.77,14.3
			c0,0.26,0.26,0.39,0.26,0c1.94-1.16,2.96-3.22,4.25-5.03c0-0.13,0.13,0,0.26,0c0-0.13-0.13-0.64,0-0.77h0.26c0.13,0,0-0.52,0-0.64
			c0-0.13,0.39,0,0.39,0c0.13-0.13,0-0.64,0-0.77c0.39-0.9,0.77-1.03,1.03-1.94c0.26-0.77,0.64-1.41,0.9-2.06
			c1.16-2.06,1.94-4.25,2.83-6.44c0.39-1.16,0.78-2.32,1.03-3.09c0.26-1.29,0.9-2.71,1.8-3.61c-0.26-1.55,0.52-1.8,0.39-3.22
			c0-0.77,1.03-0.64,0.9-1.54c-0.38-1.81,0.52-3.09,0.64-3.61c0.39-0.9,0.26-1.29,0.39-1.93c0.13-1.29-0.13-1.68,0.39-2.06
			c0.77-0.64,0.26-2.71,0.38-3.87c0.13-0.9,0.52-0.77,0.64-1.29c0.26-1.42-0.26-2.83,0-4.12c-0.26-1.03,1.03-0.77,0.64-2.06
			c-0.77-0.9-0.51-2.45-0.38-2.96c0.26-1.03-0.26-1.68-0.26-2.06c-0.13-0.39,0.52-0.52,0-0.64c0-0.52-0.52-0.52-0.64-0.9
			c-0.38,0-0.77,0-1.16,0C348.79,189.58,348.67,189.83,348.41,190.09z"/>
	</g>
</g>
</svg>
